<svg width="225" height="204" viewBox="0 0 225 204" fill="none" xmlns="http://www.w3.org/2000/svg">
<path opacity="0.6" d="M194.373 203.127L179.478 198.612L164.582 203.127L149.687 198.612L134.792 203.127L119.897 198.612L105.002 203.127L90.1074 198.612L75.2124 203.127L60.3107 198.612L45.4157 203.127L30.5207 198.612L15.619 203.127L0.657349 198.592L0.783973 198.369L15.619 202.865L30.5207 198.35L45.4157 202.865L60.3107 198.35L75.2124 202.865L90.1074 198.35L105.002 202.865L119.897 198.35L134.792 202.865L149.687 198.35L164.582 202.865L179.478 198.35L194.373 202.865L209.268 198.35L224.229 202.884L224.103 203.107L209.268 198.612L194.373 203.127Z" fill="#12B0FA"/>
<path opacity="0.6" d="M194.373 198.82L179.478 194.305L164.582 198.82L149.687 194.305L134.792 198.82L119.897 194.305L105.002 198.82L90.1074 194.305L75.2124 198.82L60.3107 194.305L45.4157 198.82L30.5207 194.305L15.619 198.82L0.657349 194.286L0.783973 194.063L15.619 198.558L30.5207 194.043L45.4157 198.558L60.3107 194.043L75.2124 198.558L90.1074 194.043L105.002 198.558L119.897 194.043L134.792 198.558L149.687 194.043L164.582 198.558L179.478 194.043L194.373 198.558L209.268 194.043L224.229 198.578L224.103 198.801L209.268 194.305L194.373 198.82Z" fill="#12B0FA"/>
<path opacity="0.6" d="M194.373 194.514L179.478 189.999L164.582 194.514L149.687 189.999L134.792 194.514L119.897 189.999L105.002 194.514L90.1074 189.999L75.2124 194.514L60.3107 189.999L45.4157 194.514L30.5207 189.999L15.619 194.514L0.657349 189.979L0.783973 189.756L15.619 194.252L30.5207 189.737L45.4157 194.252L60.3107 189.737L75.2124 194.252L90.1074 189.737L105.002 194.252L119.897 189.737L134.792 194.252L149.687 189.737L164.582 194.252L179.478 189.737L194.373 194.252L209.268 189.737L224.229 194.271L224.103 194.494L209.268 189.999L194.373 194.514Z" fill="#12B0FA"/>
<path opacity="0.6" d="M194.373 190.207L179.478 185.692L164.582 190.207L149.687 185.692L134.792 190.207L119.897 185.692L105.002 190.207L90.1074 185.692L75.2124 190.207L60.3107 185.692L45.4157 190.207L30.5207 185.692L15.619 190.207L0.657349 185.672L0.783973 185.449L15.619 189.945L30.5207 185.43L45.4157 189.945L60.3107 185.43L75.2124 189.945L90.1074 185.43L105.002 189.945L119.897 185.43L134.792 189.945L149.687 185.43L164.582 189.945L179.478 185.43L194.373 189.945L209.268 185.43L224.229 189.965L224.103 190.188L209.268 185.692L194.373 190.207Z" fill="#12B0FA"/>
<path opacity="0.6" d="M194.373 185.9L179.478 181.385L164.582 185.9L149.687 181.385L134.792 185.9L119.897 181.385L105.002 185.9L90.1074 181.385L75.2124 185.9L60.3107 181.385L45.4157 185.9L30.5207 181.385L15.619 185.9L0.657349 181.366L0.783973 181.138L15.619 185.638L30.5207 181.119L45.4157 185.638L60.3107 181.119L75.2124 185.638L90.1074 181.119L105.002 185.638L119.897 181.119L134.792 185.638L149.687 181.119L164.582 185.638L179.478 181.119L194.373 185.638L209.268 181.119L224.229 185.658L224.103 185.881L209.268 181.385L194.373 185.9Z" fill="#12B0FA"/>
<path opacity="0.6" d="M194.373 181.594L179.478 177.074L164.583 181.594L149.688 177.074L134.793 181.594L119.898 177.074L105.003 181.594L90.1075 177.074L75.2125 181.594L60.3108 177.074L45.4158 181.594L30.5208 177.074L15.6191 181.594L0.657471 177.054L0.784095 176.831L15.6191 181.332L30.5208 176.812L45.4158 181.332L60.3108 176.812L75.2125 181.332L90.1075 176.812L105.003 181.332L119.898 176.812L134.793 181.332L149.688 176.812L164.583 181.332L179.478 176.812L194.373 181.332L209.268 176.812L224.229 181.351L224.103 181.574L209.268 177.074L194.373 181.594Z" fill="#12B0FA"/>
<path opacity="0.6" d="M194.373 177.287L179.478 172.767L164.582 177.287L149.687 172.767L134.792 177.287L119.897 172.767L105.002 177.287L90.1074 172.767L75.2124 177.287L60.3107 172.767L45.4157 177.287L30.5207 172.767L15.619 177.287L0.657349 172.748L0.783973 172.525L15.619 177.025L30.5207 172.505L45.4157 177.025L60.3107 172.505L75.2124 177.025L90.1074 172.505L105.002 177.025L119.897 172.505L134.792 177.025L149.687 172.505L164.582 177.025L179.478 172.505L194.373 177.025L209.268 172.505L224.229 177.045L224.103 177.268L209.268 172.767L194.373 177.287Z" fill="#12B0FA"/>
<path opacity="0.6" d="M194.373 172.981L179.478 168.461L164.582 172.981L149.687 168.461L134.792 172.981L119.897 168.461L105.002 172.981L90.1074 168.461L75.2124 172.981L60.3107 168.461L45.4157 172.981L30.5207 168.461L15.619 172.981L0.657349 168.441L0.783973 168.218L15.619 172.714L30.5207 168.199L45.4157 172.714L60.3107 168.199L75.2124 172.714L90.1074 168.199L105.002 172.714L119.897 168.199L134.792 172.714L149.687 168.199L164.582 172.714L179.478 168.199L194.373 172.714L209.268 168.199L224.229 172.733L224.103 172.961L209.268 168.461L194.373 172.981Z" fill="#12B0FA"/>
<path opacity="0.6" d="M194.373 168.669L179.478 164.154L164.582 168.669L149.687 164.154L134.792 168.669L119.897 164.154L105.002 168.669L90.1074 164.154L75.2124 168.669L60.3107 164.154L45.4157 168.669L30.5207 164.154L15.619 168.669L0.657349 164.135L0.783973 163.912L15.619 168.407L30.5207 163.892L45.4157 168.407L60.3107 163.892L75.2124 168.407L90.1074 163.892L105.002 168.407L119.897 163.892L134.792 168.407L149.687 163.892L164.582 168.407L179.478 163.892L194.373 168.407L209.268 163.892L224.229 168.427L224.103 168.65L209.268 164.154L194.373 168.669Z" fill="#12B0FA"/>
<path opacity="0.6" d="M194.373 164.363L179.478 159.848L164.582 164.363L149.687 159.848L134.792 164.363L119.897 159.848L105.002 164.363L90.1074 159.848L75.2124 164.363L60.3107 159.848L45.4157 164.363L30.5207 159.848L15.619 164.363L0.657349 159.828L0.783973 159.605L15.619 164.101L30.5207 159.586L45.4157 164.101L60.3107 159.586L75.2124 164.101L90.1074 159.586L105.002 164.101L119.897 159.586L134.792 164.101L149.687 159.586L164.582 164.101L179.478 159.586L194.373 164.101L209.268 159.586L224.229 164.12L224.103 164.343L209.268 159.848L194.373 164.363Z" fill="#12B0FA"/>
<path opacity="0.6" d="M194.373 160.056L179.478 155.541L164.582 160.056L149.687 155.541L134.792 160.056L119.897 155.541L105.002 160.056L90.1074 155.541L75.2124 160.056L60.3107 155.541L45.4157 160.056L30.5207 155.541L15.619 160.056L0.657349 155.522L0.783973 155.298L15.619 159.794L30.5207 155.279L45.4157 159.794L60.3107 155.279L75.2124 159.794L90.1074 155.279L105.002 159.794L119.897 155.279L134.792 159.794L149.687 155.279L164.582 159.794L179.478 155.279L194.373 159.794L209.268 155.279L224.229 159.814L224.103 160.037L209.268 155.541L194.373 160.056Z" fill="#12B0FA"/>
<path opacity="0.6" d="M194.373 155.749L179.478 151.234L164.582 155.749L149.687 151.234L134.792 155.749L119.897 151.234L105.002 155.749L90.1074 151.234L75.2124 155.749L60.3107 151.234L45.4157 155.749L30.5207 151.234L15.619 155.749L0.657349 151.215L0.783973 150.987L15.619 155.488L30.5207 150.968L45.4157 155.488L60.3107 150.968L75.2124 155.488L90.1074 150.968L105.002 155.488L119.897 150.968L134.792 155.488L149.687 150.968L164.582 155.488L179.478 150.968L194.373 155.488L209.268 150.968L224.229 155.507L224.103 155.73L209.268 151.234L194.373 155.749Z" fill="#12B0FA"/>
<path opacity="0.6" d="M194.373 151.443L179.478 146.928L164.583 151.443L149.688 146.928L134.793 151.443L119.898 146.928L105.003 151.443L90.1075 146.928L75.2125 151.443L60.3108 146.928L45.4158 151.443L30.5208 146.928L15.6191 151.443L0.657471 146.908L0.784095 146.68L15.6191 151.181L30.5208 146.661L45.4158 151.181L60.3108 146.661L75.2125 151.181L90.1075 146.661L105.003 151.181L119.898 146.661L134.793 151.181L149.688 146.661L164.583 151.181L179.478 146.661L194.373 151.181L209.268 146.661L224.229 151.2L224.103 151.423L209.268 146.928L194.373 151.443Z" fill="#12B0FA"/>
<path opacity="0.6" d="M45.4157 147.136L30.5207 142.616L15.619 147.136L0.657349 142.597L0.783973 142.374L15.619 146.874L30.5207 142.354L45.4157 146.874L60.3107 142.354L75.2124 146.874L90.1074 142.354L105.002 146.874L119.897 142.354L134.792 146.874L149.687 142.354L164.582 146.874L179.478 142.354L194.373 146.874L209.268 142.354L224.229 146.894L224.103 147.117L209.268 142.616L194.373 147.136L179.478 142.616L164.582 147.136L149.687 142.616L134.792 147.136L119.897 142.616L105.002 147.136L90.1074 142.616L75.2124 147.136L60.3107 142.616L45.4157 147.136Z" fill="#12B0FA"/>
<path opacity="0.6" d="M194.373 142.83L179.478 138.31L164.583 142.83L149.688 138.31L134.793 142.83L119.898 138.31L105.003 142.83L90.1075 138.31L75.2125 142.83L60.3108 138.31L45.4158 142.83L30.5208 138.31L15.6191 142.83L0.657471 138.29L0.784095 138.067L15.6191 142.563L30.5208 138.048L45.4158 142.563L60.3108 138.048L75.2125 142.563L90.1075 138.048L105.003 142.563L119.898 138.048L134.793 142.563L149.688 138.048L164.583 142.563L179.478 138.048L194.373 142.563L209.268 138.048L224.229 142.582L224.103 142.81L209.268 138.31L194.373 142.83Z" fill="#12B0FA"/>
<path opacity="0.6" d="M194.373 138.523L179.478 134.003L164.582 138.523L149.687 134.003L134.792 138.523L119.897 134.003L105.002 138.523L90.1074 134.003L75.2124 138.523L60.3107 134.003L45.4157 138.523L30.5207 134.003L15.619 138.523L0.657349 133.984L0.783973 133.761L15.619 138.256L30.5207 133.741L45.4157 138.256L60.3107 133.741L75.2124 138.256L90.1074 133.741L105.002 138.256L119.897 133.741L134.792 138.256L149.687 133.741L164.582 138.256L179.478 133.741L194.373 138.256L209.268 133.741L224.229 138.276L224.103 138.504L209.268 134.003L194.373 138.523Z" fill="#12B0FA"/>
<path opacity="0.6" d="M194.373 134.212L179.478 129.697L164.582 134.212L149.687 129.697L134.792 134.212L119.897 129.697L105.002 134.212L90.1074 129.697L75.2124 134.212L60.3107 129.697L45.4157 134.212L30.5207 129.697L15.619 134.212L0.657349 129.677L0.783973 129.454L15.619 133.95L30.5207 129.435L45.4157 133.95L60.3107 129.435L75.2124 133.95L90.1074 129.435L105.002 133.95L119.897 129.435L134.792 133.95L149.687 129.435L164.582 133.95L179.478 129.435L194.373 133.95L209.268 129.435L224.229 133.969L224.103 134.192L209.268 129.697L194.373 134.212Z" fill="#12B0FA"/>
<path opacity="0.6" d="M194.373 129.905L179.478 125.39L164.582 129.905L149.687 125.39L134.792 129.905L119.897 125.39L105.002 129.905L90.1074 125.39L75.2124 129.905L60.3107 125.39L45.4157 129.905L30.5207 125.39L15.619 129.905L0.657349 125.371L0.783973 125.147L15.619 129.643L30.5207 125.128L45.4157 129.643L60.3107 125.128L75.2124 129.643L90.1074 125.128L105.002 129.643L119.897 125.128L134.792 129.643L149.687 125.128L164.582 129.643L179.478 125.128L194.373 129.643L209.268 125.128L224.229 129.663L224.103 129.886L209.268 125.39L194.373 129.905Z" fill="#12B0FA"/>
<path opacity="0.6" d="M194.373 125.598L179.478 121.083L164.582 125.598L149.687 121.083L134.792 125.598L119.897 121.083L105.002 125.598L90.1074 121.083L75.2124 125.598L60.3107 121.083L45.4157 125.598L30.5207 121.083L15.619 125.598L0.657349 121.064L0.783973 120.841L15.619 125.337L30.5207 120.821L45.4157 125.337L60.3107 120.821L75.2124 125.337L90.1074 120.821L105.002 125.337L119.897 120.821L134.792 125.337L149.687 120.821L164.582 125.337L179.478 120.821L194.373 125.337L209.268 120.821L224.229 125.356L224.103 125.579L209.268 121.083L194.373 125.598Z" fill="#12B0FA"/>
<path opacity="0.6" d="M194.373 121.292L179.478 116.777L164.582 121.292L149.687 116.777L134.792 121.292L119.897 116.777L105.002 121.292L90.1074 116.777L75.2124 121.292L60.3107 116.777L45.4157 121.292L30.5207 116.777L15.619 121.292L0.657349 116.757L0.783973 116.53L15.619 121.03L30.5207 116.51L45.4157 121.03L60.3107 116.51L75.2124 121.03L90.1074 116.51L105.002 121.03L119.897 116.51L134.792 121.03L149.687 116.51L164.582 121.03L179.478 116.51L194.373 121.03L209.268 116.51L224.229 121.05L224.103 121.273L209.268 116.777L194.373 121.292Z" fill="#12B0FA"/>
<path opacity="0.6" d="M194.373 116.985L179.478 112.47L164.582 116.985L149.687 112.47L134.792 116.985L119.897 112.47L105.002 116.985L90.1074 112.47L75.2124 116.985L60.3107 112.47L45.4157 116.985L30.5207 112.47L15.619 116.985L0.657349 112.451L0.783973 112.223L15.619 116.723L30.5207 112.203L45.4157 116.723L60.3107 112.203L75.2124 116.723L90.1074 112.203L105.002 116.723L119.897 112.203L134.792 116.723L149.687 112.203L164.582 116.723L179.478 112.203L194.373 116.723L209.268 112.203L224.229 116.743L224.103 116.966L209.268 112.47L194.373 116.985Z" fill="#12B0FA"/>
<path opacity="0.6" d="M194.373 112.679L179.478 108.159L164.583 112.679L149.688 108.159L134.793 112.679L119.898 108.159L105.003 112.679L90.1075 108.159L75.2125 112.679L60.3108 108.159L45.4158 112.679L30.5208 108.159L15.6191 112.679L0.657471 108.139L0.784095 107.916L15.6191 112.417L30.5208 107.897L45.4158 112.417L60.3108 107.897L75.2125 112.417L90.1075 107.897L105.003 112.417L119.898 107.897L134.793 112.417L149.688 107.897L164.583 112.417L179.478 107.897L194.373 112.417L209.268 107.897L224.229 112.436L224.103 112.659L209.268 108.159L194.373 112.679Z" fill="#12B0FA"/>
<path opacity="0.6" d="M194.373 108.372L179.478 103.852L164.582 108.372L149.687 103.852L134.792 108.372L119.897 103.852L105.002 108.372L90.1074 103.852L75.2124 108.372L60.3107 103.852L45.4157 108.372L30.5207 103.852L15.619 108.372L0.657349 103.833L0.783973 103.61L15.619 108.106L30.5207 103.59L45.4157 108.106L60.3107 103.59L75.2124 108.106L90.1074 103.59L105.002 108.106L119.897 103.59L134.792 108.106L149.687 103.59L164.582 108.106L179.478 103.59L194.373 108.106L209.268 103.59L224.229 108.125L224.103 108.353L209.268 103.852L194.373 108.372Z" fill="#12B0FA"/>
<path opacity="0.6" d="M194.373 104.061L179.478 99.5456L164.582 104.061L149.687 99.5456L134.792 104.061L119.897 99.5456L105.002 104.061L90.1074 99.5456L75.2124 104.061L60.3107 99.5456L45.4157 104.061L30.5207 99.5456L15.619 104.061L0.657349 99.5262L0.783973 99.3031L15.619 103.799L30.5207 99.2838L45.4157 103.799L60.3107 99.2838L75.2124 103.799L90.1074 99.2838L105.002 103.799L119.897 99.2838L134.792 103.799L149.687 99.2838L164.582 103.799L179.478 99.2838L194.373 103.799L209.268 99.2838L224.229 103.818L224.103 104.046L209.268 99.5456L194.373 104.061Z" fill="#12B0FA"/>
<path opacity="0.6" d="M194.373 99.7542L179.478 95.2391L164.583 99.7542L149.688 95.2391L134.793 99.7542L119.898 95.2391L105.003 99.7542L90.1075 95.2391L75.2125 99.7542L60.3108 95.2391L45.4158 99.7542L30.5208 95.2391L15.6191 99.7542L0.657471 95.2197L0.784095 94.9966L15.6191 99.4923L30.5208 94.9772L45.4158 99.4923L60.3108 94.9772L75.2125 99.4923L90.1075 94.9772L105.003 99.4923L119.898 94.9772L134.793 99.4923L149.688 94.9772L164.583 99.4923L179.478 94.9772L194.373 99.4923L209.268 94.9772L224.229 99.5117L224.103 99.7348L209.268 95.2391L194.373 99.7542Z" fill="#12B0FA"/>
<path opacity="0.6" d="M194.373 95.4476L179.478 90.9325L164.582 95.4476L149.687 90.9325L134.792 95.4476L119.897 90.9325L105.002 95.4476L90.1074 90.9325L75.2124 95.4476L60.3107 90.9325L45.4157 95.4476L30.5207 90.9325L15.619 95.4476L0.657349 90.9131L0.783973 90.69L15.619 95.1857L30.5207 90.6706L45.4157 95.1857L60.3107 90.6706L75.2124 95.1857L90.1074 90.6706L105.002 95.1857L119.897 90.6706L134.792 95.1857L149.687 90.6706L164.582 95.1857L179.478 90.6706L194.373 95.1857L209.268 90.6706L224.229 95.2051L224.103 95.4282L209.268 90.9325L194.373 95.4476Z" fill="#12B0FA"/>
<path opacity="0.6" d="M194.373 91.1411L179.478 86.626L164.583 91.1411L149.688 86.626L134.793 91.1411L119.898 86.626L105.003 91.1411L90.1075 86.626L75.2125 91.1411L60.3108 86.626L45.4158 91.1411L30.5208 86.626L15.6191 91.1411L0.657471 86.6066L0.784095 86.3835L15.6191 90.8792L30.5208 86.3641L45.4158 90.8792L60.3108 86.3641L75.2125 90.8792L90.1075 86.3641L105.003 90.8792L119.898 86.3641L134.793 90.8792L149.688 86.3641L164.583 90.8792L179.478 86.3641L194.373 90.8792L209.268 86.3641L224.229 90.8986L224.103 91.1217L209.268 86.626L194.373 91.1411Z" fill="#12B0FA"/>
<path opacity="0.6" d="M194.373 86.8344L179.478 82.3193L164.582 86.8344L149.687 82.3193L134.792 86.8344L119.897 82.3193L105.002 86.8344L90.1074 82.3193L75.2124 86.8344L60.3107 82.3193L45.4157 86.8344L30.5207 82.3193L15.619 86.8344L0.657349 82.2999L0.783973 82.072L15.619 86.5726L30.5207 82.0526L45.4157 86.5726L60.3107 82.0526L75.2124 86.5726L90.1074 82.0526L105.002 86.5726L119.897 82.0526L134.792 86.5726L149.687 82.0526L164.582 86.5726L179.478 82.0526L194.373 86.5726L209.268 82.0526L224.229 86.592L224.103 86.815L209.268 82.3193L194.373 86.8344Z" fill="#12B0FA"/>
<path opacity="0.6" d="M194.373 82.5278L179.478 78.0127L164.582 82.5278L149.687 78.0127L134.792 82.5278L119.897 78.0127L105.002 82.5278L90.1074 78.0127L75.2124 82.5278L60.3107 78.0127L45.4157 82.5278L30.5207 78.0127L15.619 82.5278L0.657349 77.9933L0.783973 77.7654L15.619 82.2659L30.5207 77.746L45.4157 82.2659L60.3107 77.746L75.2124 82.2659L90.1074 77.746L105.002 82.2659L119.897 77.746L134.792 82.2659L149.687 77.746L164.582 82.2659L179.478 77.746L194.373 82.2659L209.268 77.746L224.229 82.2853L224.103 82.5084L209.268 78.0127L194.373 82.5278Z" fill="#12B0FA"/>
<path opacity="0.6" d="M194.373 78.2213L179.478 73.7013L164.582 78.2213L149.687 73.7013L134.792 78.2213L119.897 73.7013L105.002 78.2213L90.1074 73.7013L75.2124 78.2213L60.3107 73.7013L45.4157 78.2213L30.5207 73.7013L15.619 78.2213L0.657349 73.6819L0.783973 73.4589L15.619 77.9594L30.5207 73.4395L45.4157 77.9594L60.3107 73.4395L75.2124 77.9594L90.1074 73.4395L105.002 77.9594L119.897 73.4395L134.792 77.9594L149.687 73.4395L164.582 77.9594L179.478 73.4395L194.373 77.9594L209.268 73.4395L224.229 77.9788L224.103 78.2019L209.268 73.7013L194.373 78.2213Z" fill="#12B0FA"/>
<path opacity="0.6" d="M194.373 73.9148L179.478 69.3948L164.582 73.9148L149.687 69.3948L134.792 73.9148L119.897 69.3948L105.002 73.9148L90.1074 69.3948L75.2124 73.9148L60.3107 69.3948L45.4157 73.9148L30.5207 69.3948L15.619 73.9148L0.657349 69.3754L0.783973 69.1523L15.619 73.648L30.5207 69.1329L45.4157 73.648L60.3107 69.1329L75.2124 73.648L90.1074 69.1329L105.002 73.648L119.897 69.1329L134.792 73.648L149.687 69.1329L164.582 73.648L179.478 69.1329L194.373 73.648L209.268 69.1329L224.229 73.6674L224.103 73.8954L209.268 69.3948L194.373 73.9148Z" fill="#12B0FA"/>
<path opacity="0.6" d="M194.373 69.6033L179.478 65.0882L164.582 69.6033L149.687 65.0882L134.792 69.6033L119.897 65.0882L105.002 69.6033L90.1074 65.0882L75.2124 69.6033L60.3107 65.0882L45.4157 69.6033L30.5207 65.0882L15.619 69.6033L0.657349 65.0688L0.783973 64.8457L15.619 69.3414L30.5207 64.8263L45.4157 69.3414L60.3107 64.8263L75.2124 69.3414L90.1074 64.8263L105.002 69.3414L119.897 64.8263L134.792 69.3414L149.687 64.8263L164.582 69.3414L179.478 64.8263L194.373 69.3414L209.268 64.8263L224.229 69.3608L224.103 69.5839L209.268 65.0882L194.373 69.6033Z" fill="#12B0FA"/>
<path opacity="0.6" d="M194.373 65.2967L179.478 60.7815L164.582 65.2967L149.687 60.7815L134.792 65.2967L119.897 60.7815L105.002 65.2967L90.1074 60.7815L75.2124 65.2967L60.3107 60.7815L45.4157 65.2967L30.5207 60.7815L15.619 65.2967L0.657349 60.7621L0.783973 60.5391L15.619 65.0348L30.5207 60.5197L45.4157 65.0348L60.3107 60.5197L75.2124 65.0348L90.1074 60.5197L105.002 65.0348L119.897 60.5197L134.792 65.0348L149.687 60.5197L164.582 65.0348L179.478 60.5197L194.373 65.0348L209.268 60.5197L224.229 65.0542L224.103 65.2773L209.268 60.7815L194.373 65.2967Z" fill="#12B0FA"/>
<path opacity="0.6" d="M194.373 60.9901L179.478 56.475L164.582 60.9901L149.687 56.475L134.792 60.9901L119.897 56.475L105.002 60.9901L90.1074 56.475L75.2124 60.9901L60.3107 56.475L45.4157 60.9901L30.5207 56.475L15.619 60.9901L0.657349 56.4556L0.783973 56.2325L15.619 60.7282L30.5207 56.2131L45.4157 60.7282L60.3107 56.2131L75.2124 60.7282L90.1074 56.2131L105.002 60.7282L119.897 56.2131L134.792 60.7282L149.687 56.2131L164.582 60.7282L179.478 56.2131L194.373 60.7282L209.268 56.2131L224.229 60.7476L224.103 60.9707L209.268 56.475L194.373 60.9901Z" fill="#12B0FA"/>
<path opacity="0.6" d="M194.373 56.6835L179.478 52.1684L164.582 56.6835L149.687 52.1684L134.792 56.6835L119.897 52.1684L105.002 56.6835L90.1074 52.1684L75.2124 56.6835L60.3107 52.1684L45.4157 56.6835L30.5207 52.1684L15.619 56.6835L0.657349 52.149L0.783973 51.9259L15.619 56.4216L30.5207 51.9065L45.4157 56.4216L60.3107 51.9065L75.2124 56.4216L90.1074 51.9065L105.002 56.4216L119.897 51.9065L134.792 56.4216L149.687 51.9065L164.582 56.4216L179.478 51.9065L194.373 56.4216L209.268 51.9065L224.229 56.441L224.103 56.6641L209.268 52.1684L194.373 56.6835Z" fill="#12B0FA"/>
<path opacity="0.6" d="M194.373 52.3769L179.478 47.8618L164.582 52.3769L149.687 47.8618L134.792 52.3769L119.897 47.8618L105.002 52.3769L90.1074 47.8618L75.2124 52.3769L60.3107 47.8618L45.4157 52.3769L30.5207 47.8618L15.619 52.3769L0.657349 47.8424L0.783973 47.6144L15.619 52.115L30.5207 47.595L45.4157 52.115L60.3107 47.595L75.2124 52.115L90.1074 47.595L105.002 52.115L119.897 47.595L134.792 52.115L149.687 47.595L164.582 52.115L179.478 47.595L194.373 52.115L209.268 47.595L224.229 52.1344L224.103 52.3575L209.268 47.8618L194.373 52.3769Z" fill="#12B0FA"/>
<path opacity="0.6" d="M194.373 48.0704L179.478 43.5553L164.582 48.0704L149.687 43.5553L134.792 48.0704L119.897 43.5553L105.002 48.0704L90.1074 43.5553L75.2124 48.0704L60.3107 43.5553L45.4157 48.0704L30.5207 43.5553L15.619 48.0704L0.657349 43.5359L0.783973 43.3079L15.619 47.8085L30.5207 43.2885L45.4157 47.8085L60.3107 43.2885L75.2124 47.8085L90.1074 43.2885L105.002 47.8085L119.897 43.2885L134.792 47.8085L149.687 43.2885L164.582 47.8085L179.478 43.2885L194.373 47.8085L209.268 43.2885L224.229 47.8279L224.103 48.051L209.268 43.5553L194.373 48.0704Z" fill="#12B0FA"/>
<path opacity="0.6" d="M194.373 43.7638L179.478 39.2438L164.582 43.7638L149.687 39.2438L134.792 43.7638L119.897 39.2438L105.002 43.7638L90.1074 39.2438L75.2124 43.7638L60.3107 39.2438L45.4157 43.7638L30.5207 39.2438L15.619 43.7638L0.657349 39.2244L0.783973 39.0013L15.619 43.5019L30.5207 38.9819L45.4157 43.5019L60.3107 38.9819L75.2124 43.5019L90.1074 38.9819L105.002 43.5019L119.897 38.9819L134.792 43.5019L149.687 38.9819L164.582 43.5019L179.478 38.9819L194.373 43.5019L209.268 38.9819L224.229 43.5213L224.103 43.7444L209.268 39.2438L194.373 43.7638Z" fill="#12B0FA"/>
<path opacity="0.6" d="M194.373 39.4572L179.478 34.9372L164.582 39.4572L149.687 34.9372L134.792 39.4572L119.897 34.9372L105.002 39.4572L90.1074 34.9372L75.2124 39.4572L60.3107 34.9372L45.4157 39.4572L30.5207 34.9372L15.619 39.4572L0.657349 34.9178L0.783973 34.6947L15.619 39.1905L30.5207 34.6754L45.4157 39.1905L60.3107 34.6754L75.2124 39.1905L90.1074 34.6754L105.002 39.1905L119.897 34.6754L134.792 39.1905L149.687 34.6754L164.582 39.1905L179.478 34.6754L194.373 39.1905L209.268 34.6754L224.229 39.2099L224.103 39.4378L209.268 34.9372L194.373 39.4572Z" fill="#12B0FA"/>
<path opacity="0.6" d="M194.373 35.1458L179.478 30.6306L164.583 35.1458L149.688 30.6306L134.793 35.1458L119.898 30.6306L105.003 35.1458L90.1075 30.6306L75.2125 35.1458L60.3108 30.6306L45.4158 35.1458L30.5208 30.6306L15.6191 35.1458L0.657471 30.6112L0.784095 30.3881L15.6191 34.8839L30.5208 30.3687L45.4158 34.8839L60.3108 30.3687L75.2125 34.8839L90.1075 30.3687L105.003 34.8839L119.898 30.3687L134.793 34.8839L149.688 30.3687L164.583 34.8839L179.478 30.3687L194.373 34.8839L209.268 30.3687L224.229 34.9033L224.103 35.1264L209.268 30.6306L194.373 35.1458Z" fill="#12B0FA"/>
<path opacity="0.6" d="M194.373 30.8391L179.478 26.324L164.582 30.8391L149.687 26.324L134.792 30.8391L119.897 26.324L105.002 30.8391L90.1074 26.324L75.2124 30.8391L60.3107 26.324L45.4157 30.8391L30.5207 26.324L15.619 30.8391L0.657349 26.3046L0.783973 26.0815L15.619 30.5773L30.5207 26.0621L45.4157 30.5773L60.3107 26.0621L75.2124 30.5773L90.1074 26.0621L105.002 30.5773L119.897 26.0621L134.792 30.5773L149.687 26.0621L164.582 30.5773L179.478 26.0621L194.373 30.5773L209.268 26.0621L224.229 30.5967L224.103 30.8197L209.268 26.324L194.373 30.8391Z" fill="#12B0FA"/>
<path opacity="0.6" d="M194.373 26.5326L179.478 22.0174L164.582 26.5326L149.687 22.0174L134.792 26.5326L119.897 22.0174L105.002 26.5326L90.1074 22.0174L75.2124 26.5326L60.3107 22.0174L45.4157 26.5326L30.5207 22.0174L15.619 26.5326L0.657349 21.998L0.783973 21.775L15.619 26.2707L30.5207 21.7556L45.4157 26.2707L60.3107 21.7556L75.2124 26.2707L90.1074 21.7556L105.002 26.2707L119.897 21.7556L134.792 26.2707L149.687 21.7556L164.582 26.2707L179.478 21.7556L194.373 26.2707L209.268 21.7556L224.229 26.2901L224.103 26.5132L209.268 22.0174L194.373 26.5326Z" fill="#12B0FA"/>
<path opacity="0.6" d="M194.373 22.226L179.478 17.7109L164.582 22.226L149.687 17.7109L134.792 22.226L119.897 17.7109L105.002 22.226L90.1074 17.7109L75.2124 22.226L60.3107 17.7109L45.4157 22.226L30.5207 17.7109L15.619 22.226L0.657349 17.6915L0.783973 17.4635L15.619 21.9641L30.5207 17.4441L45.4157 21.9641L60.3107 17.4441L75.2124 21.9641L90.1074 17.4441L105.002 21.9641L119.897 17.4441L134.792 21.9641L149.687 17.4441L164.582 21.9641L179.478 17.4441L194.373 21.9641L209.268 17.4441L224.229 21.9835L224.103 22.2066L209.268 17.7109L194.373 22.226Z" fill="#12B0FA"/>
<path opacity="0.6" d="M194.373 17.9194L179.478 13.4043L164.582 17.9194L149.687 13.4043L134.792 17.9194L119.897 13.4043L105.002 17.9194L90.1074 13.4043L75.2124 17.9194L60.3107 13.4043L45.4157 17.9194L30.5207 13.4043L15.619 17.9194L0.657349 13.3849L0.783973 13.157L15.619 17.6575L30.5207 13.1376L45.4157 17.6575L60.3107 13.1376L75.2124 17.6575L90.1074 13.1376L105.002 17.6575L119.897 13.1376L134.792 17.6575L149.687 13.1376L164.582 17.6575L179.478 13.1376L194.373 17.6575L209.268 13.1376L224.229 17.6769L224.103 17.9L209.268 13.4043L194.373 17.9194Z" fill="#12B0FA"/>
<path opacity="0.6" d="M194.373 13.6129L179.478 9.09291L164.582 13.6129L149.687 9.09291L134.792 13.6129L119.897 9.09291L105.002 13.6129L90.1074 9.09291L75.2124 13.6129L60.3107 9.09291L45.4157 13.6129L30.5207 9.09291L15.619 13.6129L0.657349 9.07351L0.783973 8.85042L15.619 13.351L30.5207 8.83102L45.4157 13.351L60.3107 8.83102L75.2124 13.351L90.1074 8.83102L105.002 13.351L119.897 8.83102L134.792 13.351L149.687 8.83102L164.582 13.351L179.478 8.83102L194.373 13.351L209.268 8.83102L224.229 13.3704L224.103 13.5935L209.268 9.09291L194.373 13.6129Z" fill="#12B0FA"/>
<path opacity="0.6" d="M194.373 9.30624L179.478 4.78627L164.582 9.30624L149.687 4.78627L134.792 9.30624L119.897 4.78627L105.002 9.30624L90.1074 4.78627L75.2124 9.30624L60.3107 4.78627L45.4157 9.30624L30.5207 4.78627L15.619 9.30624L0.657349 4.76687L0.783973 4.54378L15.619 9.03951L30.5207 4.52438L45.4157 9.03951L60.3107 4.52438L75.2124 9.03951L90.1074 4.52438L105.002 9.03951L119.897 4.52438L134.792 9.03951L149.687 4.52438L164.582 9.03951L179.478 4.52438L194.373 9.03951L209.268 4.52438L224.229 9.05891L224.103 9.28684L209.268 4.78627L194.373 9.30624Z" fill="#12B0FA"/>
<path opacity="0.6" d="M194.373 4.99963L179.478 0.47966L164.582 4.99963L149.687 0.47966L134.792 4.99963L119.897 0.47966L105.002 4.99963L90.1074 0.47966L75.2124 4.99963L60.3107 0.47966L45.4157 4.99963L30.5207 0.47966L15.619 4.99963L0.657349 0.460261L0.783973 0.237172L15.619 4.7329L30.5207 0.217773L45.4157 4.7329L60.3107 0.217773L75.2124 4.7329L90.1074 0.217773L105.002 4.7329L119.897 0.217773L134.792 4.7329L149.687 0.217773L164.582 4.7329L179.478 0.217773L194.373 4.7329L209.268 0.217773L224.229 4.7523L224.103 4.98023L209.268 0.47966L194.373 4.99963Z" fill="#12B0FA"/>
</svg>
