<svg width="24" height="24" viewBox="0 0 24 24" fill="none" xmlns="http://www.w3.org/2000/svg">
<path d="M11.9191 0.334027C11.7128 0.344419 11.5107 0.395569 11.3246 0.484474L3.21186 4.36082C3.00189 4.4611 2.81739 4.60701 2.67207 4.78771C2.52675 4.96841 2.42435 5.17927 2.37247 5.40461L0.371007 14.1119C0.324791 14.3125 0.319618 14.5203 0.355797 14.7229C0.391975 14.9255 0.468769 15.1189 0.581633 15.2916C0.609 15.3338 0.638433 15.3746 0.669826 15.414L6.28513 22.3958C6.43048 22.5764 6.615 22.7223 6.82498 22.8225C7.03496 22.9228 7.26501 22.9748 7.49805 22.9747L16.5031 22.9727C16.736 22.9728 16.966 22.921 17.176 22.8209C17.386 22.7209 17.5705 22.5752 17.716 22.3948L23.3292 15.4119C23.4746 15.2312 23.5771 15.0203 23.629 14.7948C23.681 14.5694 23.681 14.3352 23.6291 14.1098L21.6245 5.40254C21.5726 5.17719 21.4702 4.96634 21.3249 4.78564C21.1796 4.60493 20.9951 4.45902 20.7851 4.35874L12.6713 0.484474C12.4373 0.372638 12.1786 0.320906 11.9191 0.334027Z" fill="#326CE5"/>
<path d="M11.9996 3.29724C11.7315 3.29727 11.514 3.53882 11.5141 3.83678C11.5141 3.84135 11.515 3.84572 11.5151 3.85026C11.5147 3.89075 11.5128 3.93952 11.5141 3.97477C11.5205 4.14663 11.5579 4.27816 11.5805 4.43649C11.6213 4.77537 11.6555 5.05628 11.6344 5.31738C11.6139 5.41584 11.5414 5.50588 11.4767 5.56847L11.4653 5.77391C11.1739 5.79805 10.8805 5.84227 10.5875 5.90879C9.32669 6.19507 8.24113 6.84453 7.41465 7.72142C7.36102 7.68484 7.26719 7.61753 7.2393 7.59691C7.1526 7.60862 7.06498 7.63537 6.95085 7.5689C6.73355 7.42262 6.53563 7.22071 6.29615 6.97749C6.18642 6.86114 6.10695 6.75035 5.97658 6.6382C5.94697 6.61273 5.90179 6.57829 5.86867 6.55208C5.76675 6.47082 5.64653 6.42844 5.53043 6.42446C5.38115 6.41935 5.23745 6.47772 5.14341 6.59566C4.97623 6.80535 5.02976 7.12584 5.26273 7.31158C5.2651 7.31347 5.26761 7.31493 5.27 7.31677C5.30201 7.34272 5.34121 7.37597 5.37064 7.3977C5.50899 7.49985 5.63537 7.55214 5.77322 7.63323C6.06363 7.81258 6.3044 7.96129 6.49536 8.1406C6.56993 8.22009 6.58297 8.36016 6.59289 8.42074L6.74853 8.55977C5.91537 9.81361 5.52978 11.3623 5.75765 12.9404L5.55429 12.9995C5.50069 13.0687 5.42495 13.1776 5.34574 13.2101C5.09589 13.2888 4.8147 13.3177 4.47522 13.3533C4.31584 13.3666 4.17832 13.3587 4.00935 13.3907C3.97216 13.3977 3.92035 13.4112 3.87966 13.4208C3.87824 13.4211 3.87692 13.4215 3.87551 13.4218C3.87329 13.4223 3.87038 13.4234 3.86824 13.4239C3.58204 13.493 3.39818 13.7561 3.45737 14.0153C3.51657 14.2745 3.79613 14.4322 4.08406 14.3701C4.08614 14.3697 4.08915 14.3696 4.09132 14.3691C4.09457 14.3684 4.09743 14.3668 4.10066 14.366C4.1408 14.3572 4.19109 14.3474 4.2262 14.338C4.39233 14.2935 4.51264 14.2281 4.66198 14.1709C4.98328 14.0557 5.24939 13.9594 5.50864 13.9219C5.61691 13.9134 5.73099 13.9887 5.78774 14.0205L5.9994 13.9842C6.48649 15.4943 7.50725 16.7149 8.7998 17.4808L8.7116 17.6924C8.74339 17.7746 8.77845 17.8858 8.75477 17.967C8.66052 18.2114 8.49908 18.4694 8.31525 18.757C8.22624 18.8898 8.13515 18.993 8.05482 19.145C8.0356 19.1814 8.01112 19.2373 7.99257 19.2758C7.86777 19.5428 7.95931 19.8503 8.19904 19.9657C8.44028 20.0819 8.73972 19.9594 8.86931 19.6918C8.86951 19.6914 8.87016 19.6912 8.87035 19.6908C8.87048 19.6905 8.87021 19.69 8.87035 19.6897C8.88881 19.6518 8.91496 19.6019 8.93053 19.5663C8.99933 19.4087 9.02222 19.2736 9.0706 19.1212C9.19908 18.7984 9.26967 18.4598 9.44653 18.2488C9.49496 18.191 9.57392 18.1688 9.65578 18.1469L9.76577 17.9477C10.8926 18.3802 12.1539 18.4963 13.4138 18.2102C13.7013 18.1449 13.9788 18.0605 14.247 17.9591C14.2779 18.0139 14.3354 18.1193 14.3508 18.1458C14.434 18.1729 14.5248 18.1869 14.5987 18.2963C14.7311 18.5224 14.8216 18.7898 14.9318 19.1129C14.9802 19.2653 15.0041 19.4004 15.0729 19.558C15.0886 19.5939 15.1146 19.6445 15.1331 19.6825C15.2624 19.9509 15.5628 20.0738 15.8044 19.9574C16.0441 19.842 16.1357 19.5344 16.0109 19.2675C15.9923 19.229 15.9668 19.1731 15.9476 19.1367C15.8673 18.9847 15.7762 18.8826 15.6872 18.7497C15.5033 18.4621 15.3508 18.2232 15.2566 17.9788C15.2172 17.8527 15.2632 17.7744 15.2939 17.6924C15.2755 17.6714 15.2362 17.5523 15.213 17.4963C16.5563 16.7032 17.547 15.4371 18.0123 13.9748C18.0752 13.9847 18.1844 14.004 18.2199 14.0111C18.2929 13.963 18.36 13.9001 18.4917 13.9105C18.7509 13.948 19.017 14.0443 19.3383 14.1595C19.4877 14.2167 19.608 14.2831 19.7741 14.3276C19.8092 14.337 19.8595 14.3458 19.8997 14.3546C19.9029 14.3554 19.9058 14.357 19.909 14.3577C19.9112 14.3582 19.9142 14.3583 19.9163 14.3587C20.2042 14.4207 20.4838 14.2632 20.543 14.0039C20.6021 13.7447 20.4183 13.4815 20.1321 13.4125C20.0905 13.403 20.0314 13.3869 19.991 13.3793C19.822 13.3473 19.6845 13.3552 19.5251 13.3419C19.1856 13.3063 18.9044 13.2774 18.6546 13.1987C18.5527 13.1592 18.4802 13.038 18.445 12.9881L18.2489 12.931C18.3506 12.1955 18.3232 11.4299 18.1472 10.664C17.9696 9.89086 17.6558 9.18378 17.2373 8.56081C17.2876 8.51508 17.3826 8.43096 17.4095 8.40622C17.4174 8.31909 17.4106 8.22774 17.5008 8.13126C17.6918 7.95195 17.9326 7.80326 18.223 7.62389C18.3608 7.54279 18.4882 7.49052 18.6266 7.38836C18.6579 7.36526 18.7006 7.32868 18.7334 7.30225C18.9664 7.11644 19.02 6.79597 18.8528 6.58633C18.6855 6.37668 18.3615 6.35694 18.1285 6.54275C18.0954 6.56901 18.0504 6.60326 18.0206 6.62887C17.8903 6.74102 17.8098 6.8518 17.7 6.96815C17.4606 7.21139 17.2626 7.41431 17.0453 7.5606C16.9512 7.61542 16.8132 7.59645 16.7507 7.59276L16.566 7.72454C15.5128 6.62021 14.079 5.91418 12.535 5.77702C12.5307 5.71232 12.5251 5.59537 12.5236 5.56017C12.4604 5.49969 12.3841 5.44805 12.3649 5.31738C12.3438 5.05628 12.379 4.77537 12.4199 4.43649C12.4424 4.27816 12.4799 4.14663 12.4863 3.97477C12.4877 3.93571 12.4854 3.87902 12.4852 3.83678C12.4852 3.53882 12.2678 3.29721 11.9996 3.29724ZM11.3916 7.0636L11.2474 9.61083L11.237 9.61602C11.2274 9.84389 11.0398 10.0259 10.8096 10.0259C10.7152 10.0259 10.6282 9.99557 10.5574 9.94389L10.5533 9.94596L8.46466 8.46536C9.10658 7.83415 9.92764 7.36768 10.8739 7.15284C11.0467 7.11359 11.2195 7.08447 11.3916 7.0636ZM12.6087 7.0636C13.7135 7.19948 14.7351 7.69972 15.518 8.46639L13.4429 9.93766L13.4356 9.93455C13.2515 10.0691 12.9919 10.0357 12.8484 9.8557C12.7896 9.78195 12.7587 9.69525 12.755 9.60772L12.7529 9.60668L12.6087 7.0636ZM7.70724 9.4168L9.61429 11.1226L9.61221 11.1329C9.78434 11.2826 9.80973 11.5423 9.66616 11.7223C9.60736 11.796 9.52864 11.8455 9.44413 11.8686L9.44205 11.8769L6.99754 12.5824C6.87313 11.4447 7.14126 10.3388 7.70724 9.4168ZM16.2786 9.41784C16.5619 9.87711 16.7765 10.3901 16.9042 10.9462C17.0304 11.4956 17.0621 12.0441 17.0101 12.5741L14.5531 11.8665L14.551 11.8561C14.331 11.796 14.1958 11.5722 14.247 11.3477C14.268 11.2558 14.3168 11.178 14.3829 11.1205L14.3819 11.1153L16.2786 9.41784ZM11.6085 11.2543H12.3898L12.8754 11.8613L12.701 12.6187L11.9996 12.9559L11.2962 12.6177L11.1219 11.8603L11.6085 11.2543ZM14.1132 13.3315C14.1464 13.3299 14.1794 13.3329 14.2117 13.3388L14.2159 13.3336L16.7444 13.7611C16.3744 14.8008 15.6663 15.7014 14.7201 16.3042L13.7386 13.9333L13.7417 13.9292C13.6516 13.7197 13.7418 13.474 13.9492 13.3741C14.0023 13.3485 14.0578 13.3343 14.1132 13.3315ZM9.86641 13.3419C10.0594 13.3446 10.2325 13.4785 10.2773 13.675C10.2983 13.7669 10.2881 13.858 10.2534 13.9385L10.2607 13.9479L9.28953 16.2948C8.38154 15.7122 7.65833 14.8398 7.27146 13.7694L9.77822 13.344L9.78237 13.3492C9.81041 13.344 9.83885 13.3415 9.86641 13.3419ZM11.9841 14.3701C12.0513 14.3677 12.1195 14.3815 12.1843 14.4127C12.2693 14.4536 12.335 14.518 12.3763 14.5953H12.3856L13.6214 16.8281C13.461 16.8819 13.2961 16.9278 13.1275 16.9661C12.1824 17.1807 11.2403 17.1157 10.3873 16.825L11.6199 14.5963H11.622C11.6959 14.4581 11.8362 14.3756 11.9841 14.3701Z" fill="white" stroke="white" stroke-width="0.069171"/>
</svg>
