<svg width="24" height="24" viewBox="0 0 24 24" fill="none" xmlns="http://www.w3.org/2000/svg">
<g clip-path="url(#clip0_503_7166)">
<path d="M22.3518 14.5858C19.5577 15.1622 19.3656 14.2162 19.3656 14.2162C22.3157 9.83866 23.549 4.28207 22.4847 2.92213C19.5813 -0.787537 14.5554 0.966897 14.4715 1.01244L14.4445 1.01728C13.8925 0.902685 13.2747 0.834418 12.5803 0.823087C11.3161 0.802368 10.357 1.15453 9.62933 1.70639C9.62933 1.70639 0.663526 -1.98717 1.08051 6.35173C1.16922 8.12578 3.62321 19.7749 6.55023 16.2563C7.62005 14.9697 8.65371 13.8818 8.65371 13.8818C9.16713 14.2229 9.78175 14.3969 10.4261 14.3344L10.4761 14.2919C10.4606 14.4516 10.4677 14.6079 10.4962 14.7928C9.74215 15.6353 9.96372 15.7832 8.45636 16.0935C6.93111 16.4079 7.82713 16.9675 8.41214 17.1137C9.12136 17.2911 10.7621 17.5423 11.8708 15.9904L11.8266 16.1675C12.122 16.4041 12.3295 17.7067 12.2947 18.8875C12.26 20.0684 12.2367 20.8791 12.4695 21.5123C12.7023 22.1455 12.9343 23.5703 14.9159 23.1457C16.5717 22.7909 17.4297 21.8714 17.5491 20.3375C17.6338 19.2471 17.8255 19.4083 17.8376 18.4334L17.9913 17.9719C18.1687 16.4937 18.0195 16.0169 19.0396 16.2387L19.2875 16.2604C20.0383 16.2946 21.021 16.1397 21.5978 15.8716C22.8397 15.2953 23.5762 14.333 22.3517 14.5858H22.3518Z" fill="#2977B7"/>
<path d="M9.58284 7.39088C9.56684 7.50414 9.79019 7.80637 10.0814 7.84675C10.3722 7.8873 10.621 7.65111 10.6368 7.53797C10.6526 7.42471 10.4295 7.29995 10.1381 7.2594C9.84724 7.2188 9.59828 7.2779 9.5829 7.39088H9.58284Z" fill="white"/>
<path d="M18.4384 7.16002C18.4542 7.27328 18.2311 7.57551 17.9398 7.61589C17.6488 7.65644 17.4 7.42026 17.3841 7.30711C17.3687 7.19385 17.5918 7.06909 17.8828 7.02854C18.1738 6.98799 18.4226 7.04704 18.4384 7.16008V7.16002Z" fill="white"/>
<path d="M12.0905 15.4359C12.0921 15.3807 12.0486 15.3347 11.9934 15.3332C11.9382 15.3316 11.8922 15.3751 11.8906 15.4303L12.0905 15.4359ZM12.279 21.6263L12.1862 21.6634L12.1862 21.6634L12.279 21.6263ZM15.1064 23.1841L15.1273 23.2819L15.1273 23.2819L15.1064 23.1841ZM17.6258 20.6261L17.5272 20.6091L17.5272 20.6091L17.6258 20.6261ZM9.57747 1.73754C9.6286 1.75844 9.68698 1.73393 9.70787 1.68281C9.72877 1.63168 9.70426 1.5733 9.65314 1.55241L9.57747 1.73754ZM1.06049 6.31693L1.16037 6.31193L1.16037 6.31193L1.06049 6.31693ZM6.53032 16.2217L6.60719 16.2857L6.60722 16.2857L6.53032 16.2217ZM8.63945 13.9949C8.67767 13.9551 8.67633 13.8918 8.63645 13.8535C8.59658 13.8153 8.53328 13.8167 8.49506 13.8565L8.63945 13.9949ZM14.4914 1.0711C14.5441 1.05457 14.5734 0.998458 14.5569 0.945759C14.5404 0.893061 14.4842 0.863734 14.4315 0.880258L14.4914 1.0711ZM22.465 2.88742L22.5437 2.82579L22.5437 2.82579L22.465 2.88742ZM22.3322 14.5512L22.3524 14.6491L22.3524 14.6491L22.3322 14.5512ZM21.5781 15.8373L21.6202 15.9281L21.6202 15.928L21.5781 15.8373ZM18.2964 12.4965L18.3888 12.4583L18.3888 12.4583L18.2964 12.4965ZM12.5603 0.788265L12.5587 0.888252L12.5587 0.888252L12.5603 0.788265ZM10.4763 14.7582L10.5508 14.8249L10.5508 14.8249L10.4763 14.7582ZM8.43645 16.059L8.41628 15.961L8.41626 15.961L8.43645 16.059ZM8.39218 17.0791L8.41645 16.9821L8.41643 16.9821L8.39218 17.0791ZM11.8508 15.9554L11.7695 15.8973L11.7695 15.8973L11.8508 15.9554ZM11.3851 14.5364L11.4234 14.444L11.4233 14.444L11.3851 14.5364ZM10.3281 14.7587C10.3364 14.8133 10.3875 14.8508 10.4421 14.8424C10.4966 14.834 10.5341 14.783 10.5257 14.7284L10.3281 14.7587ZM10.8455 12.9693L10.7518 12.9344L10.7517 12.9345L10.8455 12.9693ZM11.4075 7.61799L11.5052 7.59685L11.5052 7.59685L11.4075 7.61799ZM7.26908 10.6928L7.17005 10.6789L7.17004 10.6789L7.26908 10.6928ZM10.4159 14.3994C10.4709 14.394 10.5111 14.3452 10.5058 14.2902C10.5005 14.2352 10.4516 14.195 10.3967 14.2003L10.4159 14.3994ZM19.2573 8.81545L19.3572 8.8187L19.3572 8.81864L19.2573 8.81545ZM18.7748 13.2832C18.744 13.3291 18.7563 13.3912 18.8022 13.422C18.8481 13.4527 18.9102 13.4404 18.9409 13.3945L18.7748 13.2832ZM11.8906 15.4303C11.8521 16.8074 11.8569 18.1898 11.9051 19.313C11.9292 19.8745 11.9642 20.3723 12.0103 20.7728C12.0559 21.1699 12.1134 21.4814 12.1862 21.6634L12.3719 21.5892C12.3101 21.4346 12.2546 21.1475 12.209 20.75C12.1637 20.3559 12.1289 19.8633 12.1049 19.3044C12.057 18.1869 12.0521 16.8093 12.0905 15.4359L11.8906 15.4303ZM12.1862 21.6634C12.321 22.0003 12.5398 22.5174 12.9861 22.8933C13.4384 23.2743 14.1106 23.4997 15.1273 23.2819L15.0854 23.0863C14.1203 23.293 13.5135 23.0761 13.115 22.7403C12.7103 22.3995 12.5064 21.9254 12.3719 21.5891L12.1862 21.6634ZM15.1273 23.2819C15.9643 23.1024 16.5511 22.8359 16.961 22.4099C17.3711 21.9836 17.5921 21.4101 17.7243 20.6431L17.5272 20.6091C17.3981 21.3582 17.1872 21.8863 16.8168 22.2712C16.4463 22.6564 15.9041 22.9108 15.0854 23.0863L15.1273 23.2819ZM17.7243 20.6431C17.9174 19.5245 18.2889 16.4234 18.3368 15.7854L18.1373 15.7705C18.09 16.402 17.7192 19.4968 17.5272 20.6091L17.7243 20.6431ZM9.61531 1.64497C9.65314 1.55241 9.65307 1.55238 9.65297 1.55234C9.65289 1.5523 9.65275 1.55225 9.65259 1.55218C9.65227 1.55205 9.65181 1.55187 9.65122 1.55163C9.65004 1.55115 9.64832 1.55045 9.64606 1.54955C9.64156 1.54774 9.63493 1.54509 9.62624 1.54167C9.60887 1.53483 9.58328 1.52488 9.55004 1.5123C9.48354 1.48714 9.3864 1.45147 9.26309 1.40912C9.01653 1.32443 8.66509 1.21295 8.24474 1.10543C7.40518 0.890677 6.28556 0.690388 5.17576 0.754025C4.0661 0.817654 2.95494 1.14603 2.1485 2.00031C1.34119 2.85552 0.855504 4.22043 0.960617 6.32192L1.16037 6.31193C1.05693 4.24397 1.53632 2.94016 2.29394 2.1376C3.05242 1.33413 4.10603 1.01569 5.18721 0.953697C6.26825 0.891709 7.36555 1.08698 8.19518 1.29919C8.60943 1.40515 8.95567 1.515 9.19813 1.59827C9.31933 1.6399 9.41454 1.67487 9.47927 1.69936C9.51163 1.7116 9.53637 1.72122 9.55292 1.72775C9.5612 1.73101 9.56743 1.7335 9.57155 1.73515C9.57361 1.73597 9.57513 1.73659 9.57613 1.73699C9.57662 1.73719 9.57698 1.73734 9.57721 1.73743C9.57732 1.73748 9.57739 1.73751 9.57744 1.73753C9.57748 1.73754 9.57747 1.73754 9.61531 1.64497ZM0.960616 6.32192C0.983252 6.7746 1.15498 7.84246 1.44339 9.12967C1.73228 10.419 2.13995 11.9361 2.6372 13.2886C3.13272 14.6365 3.72292 15.8376 4.38362 16.4798C4.71535 16.8022 5.07701 16.9955 5.46281 16.9791C5.84922 16.9627 6.2316 16.7372 6.60719 16.2857L6.45344 16.1578C6.09729 16.5859 5.76271 16.7662 5.45432 16.7793C5.14532 16.7924 4.83435 16.639 4.52302 16.3364C3.89758 15.7285 3.31989 14.566 2.82492 13.2196C2.33166 11.8779 1.92624 10.3699 1.63855 9.08594C1.35039 7.79987 1.18209 6.74628 1.16037 6.31193L0.960616 6.32192ZM6.60722 16.2857C7.14082 15.6437 7.64904 15.0709 8.02389 14.6585C8.21129 14.4523 8.36529 14.2863 8.4724 14.1719C8.52595 14.1147 8.56777 14.0704 8.59618 14.0404C8.61038 14.0254 8.62123 14.014 8.62851 14.0064C8.63215 14.0026 8.6349 13.9997 8.63674 13.9978C8.63765 13.9968 8.63834 13.9961 8.63879 13.9956C8.63902 13.9954 8.63919 13.9952 8.6393 13.9951C8.63935 13.995 8.63939 13.995 8.63942 13.995C8.63943 13.995 8.63944 13.9949 8.63944 13.9949C8.63945 13.9949 8.63945 13.9949 8.56726 13.9257C8.49506 13.8565 8.49506 13.8565 8.49505 13.8566C8.49504 13.8566 8.49503 13.8566 8.49501 13.8566C8.49498 13.8566 8.49493 13.8567 8.49486 13.8567C8.49474 13.8569 8.49456 13.8571 8.49431 13.8573C8.49383 13.8578 8.49311 13.8586 8.49216 13.8596C8.49027 13.8615 8.48746 13.8645 8.48375 13.8684C8.47634 13.8762 8.46536 13.8877 8.45103 13.9028C8.42235 13.9331 8.38025 13.9777 8.3264 14.0352C8.2187 14.1502 8.06402 14.3169 7.87589 14.5239C7.49967 14.9378 6.98941 15.513 6.45341 16.1578L6.60722 16.2857ZM14.4315 0.880258C14.4271 0.881664 14.4263 0.881779 14.4278 0.881435C14.4283 0.88131 14.4298 0.880974 14.4318 0.880609C14.4329 0.880395 14.4382 0.879418 14.4453 0.879173C14.4493 0.879118 14.4603 0.879795 14.467 0.880818C14.4794 0.88398 14.5124 0.902213 14.5295 0.920542C14.5444 0.951003 14.5445 1.00677 14.5359 1.02743C14.5298 1.03698 14.5185 1.05027 14.514 1.05442C14.5066 1.06082 14.4999 1.06454 14.499 1.06509C14.4968 1.06637 14.4951 1.06721 14.4944 1.06752C14.4931 1.06817 14.4926 1.06839 14.4934 1.06805C14.4948 1.06745 14.4978 1.06622 14.5028 1.06429C14.523 1.05657 14.5636 1.0422 14.6231 1.02311C14.7418 0.985086 14.9326 0.92933 15.1801 0.871477C15.6753 0.755723 16.3955 0.63206 17.2179 0.624421C18.8631 0.609139 20.9058 1.05744 22.3862 2.94905L22.5437 2.82579C21.0113 0.867699 18.8971 0.408814 17.216 0.424429C16.3754 0.432239 15.6401 0.558546 15.1346 0.676727C14.8817 0.735842 14.6857 0.793045 14.5621 0.832652C14.5006 0.852376 14.4562 0.867993 14.4313 0.877514C14.4251 0.879889 14.4194 0.882169 14.4146 0.884225C14.4123 0.885212 14.4092 0.886543 14.4061 0.888085C14.4046 0.88884 14.4022 0.890071 14.3993 0.891684C14.3978 0.892565 14.3908 0.896561 14.3831 0.903181C14.3785 0.907449 14.367 0.920832 14.361 0.930465C14.3523 0.9512 14.3524 1.00704 14.3673 1.03755C14.3845 1.05593 14.4176 1.0742 14.4301 1.07738C14.4369 1.07843 14.448 1.07911 14.4523 1.07905C14.464 1.07864 14.4738 1.07606 14.4742 1.07599C14.4799 1.07462 14.4862 1.07273 14.4914 1.0711L14.4315 0.880258ZM22.3862 2.94904C22.6299 3.26049 22.7534 3.83255 22.7414 4.60874C22.7295 5.3791 22.5847 6.3298 22.314 7.3779C21.7726 9.47393 20.7312 11.9469 19.263 14.1257L19.4288 14.2375C20.9106 12.0387 21.9609 9.54459 22.5076 7.42792C22.7809 6.36968 22.9292 5.40263 22.9414 4.61183C22.9535 3.82686 22.8321 3.19434 22.5437 2.82579L22.3862 2.94904ZM19.3459 14.1816C19.2479 14.2015 19.2479 14.2017 19.2479 14.2018C19.2479 14.2019 19.248 14.202 19.248 14.2021C19.248 14.2023 19.2481 14.2026 19.2482 14.2028C19.2483 14.2033 19.2484 14.2039 19.2485 14.2045C19.2488 14.2057 19.2491 14.2072 19.2496 14.2089C19.2504 14.2122 19.2516 14.2165 19.2531 14.2215C19.2563 14.2316 19.2609 14.245 19.2678 14.2609C19.2816 14.2927 19.3042 14.3348 19.3405 14.3817C19.4135 14.4761 19.5393 14.5866 19.753 14.6751C20.1774 14.8507 20.9474 14.9391 22.3524 14.6491L22.312 14.4532C20.9229 14.74 20.1997 14.6435 19.8295 14.4903C19.6458 14.4142 19.549 14.3243 19.4987 14.2593C19.4733 14.2265 19.459 14.1991 19.4514 14.1814C19.4475 14.1726 19.4454 14.1662 19.4443 14.1627C19.4438 14.161 19.4435 14.16 19.4435 14.1598C19.4434 14.1597 19.4435 14.1598 19.4435 14.1601C19.4436 14.1603 19.4436 14.1605 19.4437 14.1607C19.4437 14.1609 19.4437 14.161 19.4438 14.1612C19.4438 14.1613 19.4438 14.1614 19.4438 14.1614C19.4438 14.1616 19.4439 14.1617 19.3459 14.1816ZM22.3524 14.6491C22.5011 14.6184 22.615 14.6073 22.6988 14.6101C22.7848 14.6131 22.8271 14.6304 22.8449 14.644C22.8556 14.6521 22.8618 14.661 22.8594 14.6854C22.8565 14.7161 22.839 14.7638 22.7965 14.8279C22.7124 14.9548 22.5524 15.1132 22.3321 15.2774C22.1133 15.4405 21.8404 15.6053 21.5359 15.7466L21.6202 15.928C21.9365 15.7811 22.2213 15.6094 22.4516 15.4377C22.6805 15.2672 22.8609 15.0927 22.9632 14.9385C23.0138 14.8621 23.051 14.7822 23.0585 14.7046C23.0666 14.6206 23.039 14.5403 22.966 14.4848C22.9001 14.4347 22.8088 14.4138 22.7057 14.4102C22.6003 14.4066 22.4694 14.4207 22.312 14.4532L22.3524 14.6491ZM21.536 15.7466C21.0434 15.9752 20.2327 16.1224 19.5383 16.1301C19.1914 16.1339 18.8823 16.1027 18.6612 16.034C18.4306 15.9623 18.3423 15.8666 18.3369 15.7723L18.1372 15.7837C18.1505 16.0161 18.3617 16.1503 18.6019 16.2249C18.8515 16.3025 19.1843 16.334 19.5405 16.3301C20.2526 16.3222 21.0937 16.1724 21.6202 15.9281L21.536 15.7466ZM18.3369 15.7723C18.3135 15.3624 18.3758 15.0986 18.4708 14.9245C18.5646 14.7525 18.6958 14.6583 18.8317 14.5971C18.9005 14.5661 18.9705 14.5436 19.0388 14.5238C19.104 14.5049 19.1748 14.4866 19.2319 14.4665C19.288 14.4467 19.3517 14.4187 19.396 14.3687C19.4473 14.3108 19.4609 14.2382 19.4435 14.16L19.2482 14.2033C19.2543 14.2306 19.2478 14.2344 19.2464 14.236C19.238 14.2455 19.2164 14.2599 19.1654 14.2779C19.1154 14.2955 19.0575 14.3102 18.983 14.3318C18.9116 14.3525 18.8311 14.378 18.7495 14.4148C18.5845 14.4891 18.4149 14.6094 18.2952 14.8287C18.1766 15.046 18.1125 15.3505 18.1372 15.7837L18.3369 15.7723ZM19.4435 14.1599C19.418 14.0455 19.3569 13.9379 19.282 13.8313C19.2075 13.7251 19.1115 13.6093 19.0118 13.4835C18.8102 13.2289 18.5757 12.9113 18.3888 12.4583L18.2039 12.5346C18.4012 13.0129 18.649 13.3476 18.855 13.6076C18.9591 13.7391 19.0482 13.8463 19.1183 13.9462C19.1882 14.0457 19.2314 14.1275 19.2483 14.2033L19.4435 14.1599ZM18.3888 12.4583C18.344 12.3498 18.2367 12.1567 18.1011 11.9134C17.9636 11.6668 17.7928 11.3615 17.6153 11.0209C17.2597 10.3384 16.8805 9.52044 16.6908 8.76016C16.4996 7.99345 16.5098 7.32059 16.8831 6.89343C17.255 6.46795 18.0246 6.24461 19.463 6.47492L19.4946 6.27744C18.0423 6.04489 17.1768 6.25354 16.7325 6.76182C16.2898 7.26843 16.3028 8.03108 16.4968 8.80856C16.6923 9.59246 17.0805 10.4274 17.438 11.1133C17.617 11.4568 17.7892 11.7646 17.9264 12.0108C18.0656 12.2604 18.1649 12.4399 18.2039 12.5346L18.3888 12.4583ZM19.4991 6.47411C19.5672 6.46 19.5858 6.39806 19.5902 6.37993C19.5963 6.35437 19.5966 6.3265 19.5953 6.3018C19.5925 6.25045 19.5807 6.18269 19.5614 6.10351C19.5226 5.94365 19.4497 5.72155 19.3403 5.45863C19.1213 4.93238 18.7528 4.23557 18.2067 3.53744C17.1139 2.14029 15.3054 0.733257 12.562 0.688279L12.5587 0.888252C15.2259 0.931981 16.9825 2.29699 18.0492 3.66066C18.5829 4.34295 18.9427 5.02374 19.1557 5.53547C19.2622 5.79155 19.3313 6.00353 19.3671 6.15075C19.3852 6.2251 19.3938 6.27914 19.3956 6.31255C19.3965 6.33024 19.3952 6.3355 19.3957 6.33316C19.396 6.33191 19.3982 6.32289 19.4061 6.31188C19.4151 6.2993 19.4323 6.28368 19.4585 6.27825L19.4991 6.47411ZM12.562 0.688279C11.1869 0.66573 10.1602 1.07782 9.39676 1.71342C8.63527 2.34744 8.14205 3.19855 7.82228 4.04587C7.50244 4.89341 7.35422 5.7422 7.28577 6.37801C7.25152 6.69619 7.23717 6.96174 7.23139 7.14803C7.2285 7.2412 7.22775 7.31459 7.22773 7.36489C7.22772 7.39004 7.22789 7.40942 7.22807 7.42262C7.22816 7.42922 7.22825 7.43427 7.22832 7.43773C7.22835 7.43945 7.22838 7.44078 7.2284 7.4417C7.22841 7.44217 7.22842 7.44252 7.22843 7.44278C7.22843 7.44291 7.22843 7.44303 7.22844 7.44309C7.22844 7.44318 7.22844 7.44325 7.3284 7.44062C7.42837 7.43798 7.42837 7.438 7.42837 7.43799C7.42837 7.43795 7.42837 7.43791 7.42837 7.43783C7.42836 7.43768 7.42836 7.43743 7.42835 7.43707C7.42833 7.43636 7.42831 7.43525 7.42828 7.43373C7.42822 7.43071 7.42813 7.4261 7.42805 7.41994C7.42789 7.40763 7.42772 7.38917 7.42773 7.36497C7.42775 7.31657 7.42847 7.24522 7.4313 7.15423C7.43694 6.97223 7.45099 6.71182 7.48462 6.39941C7.55194 5.77405 7.69744 4.94312 8.0094 4.11648C8.32145 3.28962 8.79811 2.4721 9.52473 1.86712C10.2495 1.26372 11.229 0.866447 12.5587 0.888252L12.562 0.688279ZM10.4018 14.6915C10.2107 14.9049 10.0809 15.0751 9.97304 15.2111C9.86439 15.3481 9.78041 15.4472 9.67654 15.5299C9.47023 15.6943 9.17136 15.8056 8.41628 15.961L8.45661 16.1569C9.20901 16.002 9.55298 15.8841 9.80118 15.6863C9.92456 15.588 10.0208 15.4728 10.1297 15.3354C10.2395 15.197 10.3647 15.0328 10.5508 14.8249L10.4018 14.6915ZM8.41626 15.961C8.03184 16.0403 7.78162 16.138 7.64062 16.2529C7.56837 16.3119 7.5186 16.3804 7.50051 16.4589C7.48218 16.5384 7.49963 16.614 7.53501 16.6796C7.6025 16.8047 7.74331 16.9098 7.88987 16.99C8.04031 17.0723 8.21403 17.1376 8.36793 17.1761L8.41643 16.9821C8.2779 16.9474 8.12029 16.888 7.98587 16.8145C7.84759 16.7388 7.75003 16.6569 7.71104 16.5846C7.69318 16.5515 7.69036 16.5257 7.6954 16.5038C7.70068 16.4809 7.71793 16.448 7.76702 16.4079C7.8687 16.325 8.07843 16.2349 8.45664 16.1569L8.41626 15.961ZM8.3679 17.1761C9.08461 17.3554 10.7849 17.6201 11.9322 16.0136L11.7695 15.8973C10.6995 17.3955 9.11817 17.1577 8.41645 16.9821L8.3679 17.1761ZM11.9322 16.0136C12.1262 15.7419 12.1203 15.3978 12.0122 15.106C11.9045 14.8153 11.6871 14.5534 11.4234 14.444L11.3468 14.6288C11.5468 14.7117 11.7311 14.923 11.8247 15.1755C11.9179 15.4271 11.913 15.6963 11.7695 15.8973L11.9322 16.0136ZM11.4233 14.444C11.3124 14.3981 11.1606 14.3357 10.9824 14.3513C10.7995 14.3672 10.6063 14.4626 10.4017 14.6916L10.5508 14.8249C10.7313 14.6229 10.8805 14.5609 10.9998 14.5505C11.1236 14.5397 11.2337 14.5819 11.3468 14.6288L11.4233 14.444ZM10.5257 14.7284C10.4909 14.5013 10.5274 14.2461 10.6081 13.956C10.6888 13.6658 10.8104 13.3513 10.9392 13.0041L10.7517 12.9345C10.6247 13.2768 10.499 13.6018 10.4154 13.9025C10.3317 14.2033 10.2869 14.4905 10.3281 14.7587L10.5257 14.7284ZM10.9392 13.0041C11.0344 12.7481 11.158 12.4984 11.2872 12.1976C11.4147 11.9007 11.5419 11.5657 11.6343 11.1585C11.8193 10.343 11.8624 9.24876 11.5052 7.59685L11.3097 7.63912C11.6622 9.26912 11.6165 10.3332 11.4393 11.1142C11.3505 11.5053 11.2282 11.8281 11.1034 12.1187C10.9803 12.4055 10.8489 12.6732 10.7518 12.9344L10.9392 13.0041ZM11.5052 7.59685C11.3666 6.95584 11.0248 6.58907 10.5833 6.41859C10.1495 6.25109 9.63342 6.2784 9.14792 6.39039C8.66056 6.50281 8.19156 6.70342 7.84366 6.89714C7.66979 6.99395 7.52367 7.09043 7.41952 7.17514C7.3677 7.21728 7.32369 7.25859 7.29163 7.29745C7.26379 7.3312 7.2288 7.38182 7.22841 7.43995L7.4284 7.44129C7.42829 7.45796 7.42127 7.45459 7.44591 7.42473C7.46632 7.39998 7.49927 7.36807 7.54572 7.3303C7.63808 7.25518 7.77363 7.16505 7.94096 7.07188C8.27543 6.88564 8.72688 6.69276 9.19288 6.58527C9.66074 6.47735 10.131 6.45832 10.5112 6.60517C10.8838 6.74904 11.1839 7.05731 11.3097 7.63913L11.5052 7.59685ZM7.22841 7.43996C7.22613 7.78887 7.38868 9.11553 7.17005 10.6789L7.36812 10.7066C7.58897 9.1274 7.42635 7.75537 7.4284 7.44127L7.22841 7.43996ZM7.17004 10.6789C6.87556 12.7848 8.51069 14.5838 10.4159 14.3994L10.3967 14.2003C8.63682 14.3707 7.08915 12.7015 7.36812 10.7066L7.17004 10.6789ZM19.3789 6.38157C19.4023 6.81518 19.3558 7.18029 19.2985 7.55935C19.2412 7.93769 19.1726 8.33213 19.1573 8.81226L19.3572 8.81864C19.3721 8.35304 19.4383 7.97205 19.4962 7.58928C19.554 7.20724 19.6032 6.82559 19.5787 6.37079L19.3789 6.38157ZM19.1573 8.8122C19.1459 9.16403 19.1822 9.52666 19.225 9.89229C19.2682 10.26 19.3179 10.6301 19.3365 11.0068C19.3735 11.7566 19.2859 12.5198 18.7748 13.2832L18.9409 13.3945C19.4846 12.5826 19.5744 11.7714 19.5363 10.997C19.5173 10.6116 19.4663 10.2321 19.4237 9.86899C19.3808 9.50375 19.3463 9.1542 19.3572 8.8187L19.1573 8.8122Z" fill="white"/>
</g>
<defs>
<clipPath id="clip0_503_7166">
<rect width="24" height="24" fill="white"/>
</clipPath>
</defs>
</svg>
