<svg width="24" height="24" viewBox="0 0 24 24" fill="none" xmlns="http://www.w3.org/2000/svg">
<g clip-path="url(#clip0_503_10705)">
<path d="M23.0591 17.5762C21.7784 18.2442 15.1442 20.9718 13.7318 21.7079C12.3193 22.4441 11.5348 22.4371 10.4189 21.9039C9.30288 21.3707 2.2431 18.5191 0.970614 17.9108C0.334369 17.6067 0.000976562 17.3509 0.000976562 17.1092V14.6832C0.000976562 14.6832 9.19281 12.6822 10.6772 12.1496C12.1615 11.6171 12.675 11.598 13.9386 12.0606C15.2021 12.5231 22.7525 13.8853 24.0001 14.3428V16.7351C24.0001 16.9749 23.7126 17.244 23.0604 17.5774L23.0591 17.5762Z" fill="#A41E11"/>
<path d="M23.0593 15.1495C21.7785 15.8176 15.1444 18.5452 13.7319 19.2813C12.3194 20.0174 11.5349 20.0104 10.419 19.4773C9.303 18.9441 2.24322 16.0924 0.97073 15.4842C-0.301761 14.8759 -0.327211 14.4579 0.921739 13.9686L10.6767 10.1919C12.1604 9.65999 12.6745 9.64026 13.938 10.1028C15.2016 10.5654 21.7957 13.1899 23.0427 13.6543C24.2898 14.1188 24.3387 14.4878 23.058 15.1559L23.0593 15.1495Z" fill="#D82C20"/>
<path d="M23.0591 13.62C21.7784 14.288 15.1442 17.0156 13.7318 17.7518C12.3193 18.4879 11.5348 18.4809 10.4189 17.9477C9.30288 17.4146 2.2431 14.5629 0.970614 13.9547C0.334369 13.6505 0.000976562 13.3948 0.000976562 13.153V10.727C0.000976562 10.727 9.19281 8.72599 10.6772 8.19346C12.1615 7.66092 12.675 7.64183 13.9386 8.10438C15.2021 8.56693 22.7525 9.92913 24.0001 10.3866V12.7789C24.0001 13.0187 23.7126 13.2879 23.0604 13.6213L23.0591 13.62Z" fill="#A41E11"/>
<path d="M23.0593 11.194C21.7785 11.8621 15.1444 14.5897 13.7319 15.3258C12.3194 16.0619 11.5349 16.0549 10.419 15.5218C9.303 14.9886 2.24322 12.1369 0.97073 11.5287C-0.301761 10.9204 -0.327211 10.5024 0.921739 10.0132L10.6767 6.23703C12.1604 5.7045 12.6745 5.68541 13.938 6.14796C15.2016 6.61051 21.7957 9.23566 23.044 9.69185C24.2923 10.148 24.34 10.5253 23.0593 11.1934V11.194Z" fill="#D82C20"/>
<path d="M23.0591 9.51748C21.7784 10.1855 15.1442 12.9131 13.7318 13.6499C12.3193 14.3867 11.5348 14.379 10.4189 13.8459C9.30288 13.3127 2.2431 10.461 0.970614 9.85278C0.334369 9.54865 0.000976562 9.29288 0.000976562 9.05111V6.62383C0.000976562 6.62383 9.19281 4.62284 10.6772 4.09031C12.1615 3.55777 12.675 3.53868 13.9386 4.00123C15.2021 4.46378 22.7525 5.82598 24.0001 6.28344V8.67573C24.0001 8.91559 23.7126 9.18472 23.0604 9.51812L23.0591 9.51748Z" fill="#A41E11"/>
<path d="M23.0593 7.09087C21.7785 7.75893 15.1444 10.4865 13.7319 11.2226C12.3194 11.9588 11.5349 11.9518 10.419 11.4186C9.303 10.8854 2.24322 8.03379 0.97073 7.42554C-0.301761 6.81729 -0.327211 6.39927 0.921739 5.91L10.6767 2.13389C12.1604 1.60135 12.6745 1.58226 13.938 2.04481C15.2016 2.50736 21.7957 5.13251 23.044 5.5887C24.2923 6.04488 24.34 6.42218 23.0593 7.09024V7.09087Z" fill="#D82C20"/>
<path d="M12.5996 6.09074L11.8475 4.84052L9.44632 4.6242L11.238 3.97777L10.7004 2.98523L12.3775 3.64056L13.9592 3.12266L13.5317 4.14829L15.1439 4.75272L13.0646 4.96904L12.5996 6.09074ZM8.59375 8.57973L14.1545 7.72589L12.4748 10.1894L8.59375 8.57973Z" fill="white"/>
<path d="M7.09461 7.68204C8.73629 7.68204 10.0671 7.16617 10.0671 6.5298C10.0671 5.89344 8.73629 5.37756 7.09461 5.37756C5.45292 5.37756 4.12207 5.89344 4.12207 6.5298C4.12207 7.16617 5.45292 7.68204 7.09461 7.68204Z" fill="white"/>
<path d="M20.8935 6.36179L17.6041 7.661L17.6016 5.06067L20.8935 6.36179Z" fill="#7A0C00"/>
<path d="M17.6046 7.66098L17.2483 7.80095L13.9614 6.50174L17.6027 5.06128L17.6046 7.66098Z" fill="#AD2115"/>
</g>
<defs>
<clipPath id="clip0_503_10705">
<rect width="24" height="24" fill="white"/>
</clipPath>
</defs>
</svg>
