<svg width="126" height="25" viewBox="0 0 126 25" fill="none" xmlns="http://www.w3.org/2000/svg">
<path d="M87.222 0.690399C87.029 0.245468 86.66 0.000619888 86.1828 0.000619888C85.6945 0.000619888 85.3196 0.245792 85.129 0.686357L75.4049 22.3214C75.2677 22.5962 75.2506 22.8998 75.3632 23.2187C75.4838 23.5053 75.6842 23.7126 75.9515 23.8309C76.1105 23.9064 76.2733 23.9447 76.4417 23.9447C76.5768 23.9447 76.7158 23.9198 76.8591 23.8697C77.145 23.7494 77.3519 23.5491 77.4738 23.2753L79.71 18.297L80.4287 16.7127L86.1823 3.93371L94.8748 23.2748C95.0708 23.713 95.4298 23.9445 95.9125 23.9445C96.0842 23.9445 96.2495 23.9053 96.3841 23.8371C96.6738 23.715 96.8839 23.4967 96.9933 23.1996C97.0977 22.9005 97.0888 22.6096 96.9663 22.3335L87.222 0.690399Z" fill="#3549A5"/>
<path d="M49.3407 0.000555038H32.0195C31.7008 0.000555038 31.4191 0.121769 31.2135 0.342697C30.9864 0.569769 30.8713 0.840961 30.8713 1.14884C30.8713 1.46383 30.9895 1.74246 31.2133 1.95514C31.426 2.17882 31.7046 2.29712 32.0195 2.29712H39.5236V22.7962C39.5236 23.1152 39.645 23.3969 39.8658 23.6023C40.0927 23.8294 40.3639 23.9445 40.6719 23.9445C40.9864 23.9445 41.2649 23.8263 41.478 23.6025C41.7019 23.3898 41.8202 23.1112 41.8202 22.7962V2.29712H49.3407C49.6486 2.29712 49.9199 2.18205 50.1466 1.95498C50.3598 1.74213 50.4726 1.46334 50.4726 1.14884C50.4726 0.845648 50.3656 0.577204 50.1468 0.342697C49.9199 0.115789 49.6486 0.000555038 49.3407 0.000555038Z" fill="#3549A5"/>
<path d="M71.478 21.9821C71.2519 21.7712 70.9835 21.6644 70.6803 21.6644H57.9202V1.14884C57.9202 0.845648 57.8132 0.577204 57.5944 0.342697C57.3675 0.115789 57.0961 0.000555038 56.7884 0.000555038C56.4694 0.000555038 56.188 0.121769 55.9821 0.342697C55.7552 0.569769 55.6401 0.840961 55.6401 1.14884V22.7962C55.6401 23.1113 55.7583 23.3898 55.9821 23.6025C56.1948 23.8263 56.4734 23.9445 56.7884 23.9445H70.6803C70.9882 23.9445 71.2595 23.8294 71.4861 23.6025C71.6994 23.3895 71.8123 23.1107 71.8123 22.7962C71.8123 22.493 71.7053 22.2246 71.4945 21.9984L71.478 21.9821Z" fill="#3549A5"/>
<path d="M117.178 12.7426C116.141 12.174 114.521 11.6734 112.358 11.2539L112.086 11.2059C110.375 10.8725 108.661 10.4468 106.976 9.93623C106.89 9.9149 106.767 9.88274 106.617 9.84266C105.493 9.50375 104.704 9.20605 104.27 8.95829C103.6 8.57413 103.175 8.05518 102.969 7.36831C102.612 6.21793 102.838 5.22932 103.663 4.34496C105.108 2.77615 107.662 2.09736 111.25 2.32912H111.252C114.233 2.50852 116.594 3.45332 118.277 5.14625C118.503 5.35716 118.771 5.46415 119.075 5.46415C119.394 5.46415 119.665 5.35458 119.881 5.13833C120.108 4.91142 120.223 4.63474 120.223 4.31603C120.223 4.00799 120.108 3.7368 119.881 3.50989C117.796 1.42553 114.945 0.255911 111.406 0.0338497C109.95 -0.0542316 108.521 0.0301342 107.165 0.283224C104.882 0.686132 103.138 1.52799 101.983 2.78569C101.347 3.47854 100.914 4.30876 100.696 5.25308C100.477 6.19837 100.5 7.13397 100.767 8.0387C101.139 9.23353 101.873 10.1745 102.953 10.8359C103.592 11.2246 104.579 11.615 105.958 12.0261C106.092 12.0711 106.216 12.11 106.327 12.1435C108.073 12.6674 109.864 13.1042 111.636 13.4385L111.927 13.5065C113.854 13.8795 115.256 14.2967 116.091 14.7448C117.076 15.2876 117.652 16.0362 117.851 17.0325C118.029 17.9296 117.811 18.7429 117.181 19.5227C116.938 19.8333 116.644 20.084 116.305 20.2679C114.144 21.4376 111.66 21.8806 108.923 21.5845C106.205 21.3001 104.042 20.371 102.495 18.823C102.268 18.596 101.996 18.4809 101.688 18.4809C101.37 18.4809 101.088 18.6021 100.882 18.823C100.655 19.0499 100.54 19.3211 100.54 19.6292C100.54 19.9482 100.661 20.2297 100.882 20.4345C102.822 22.3868 105.478 23.5396 108.771 23.8611C109.29 23.9164 109.824 23.9445 110.357 23.9445C112.981 23.9445 115.346 23.3817 117.385 22.2735C117.999 21.9493 118.534 21.5088 118.974 20.964C120.035 19.6491 120.415 18.1787 120.103 16.5932C119.768 14.9104 118.784 13.6148 117.178 12.7426Z" fill="#3549A5"/>
<path d="M20.6047 0.673693C20.4216 0.267067 20.0149 0.00444221 19.5689 0.00444221C19.1227 0.00460434 18.7164 0.267553 18.5332 0.674341L11.3681 16.6105C11.1114 17.1817 11.3673 17.8551 11.9385 18.1121C12.5097 18.3689 13.1831 18.1127 13.4399 17.5419L19.57 3.90763L28.302 23.2954C28.4852 23.702 28.8919 23.9648 29.3381 23.9648C29.4994 23.9648 29.6562 23.9311 29.8039 23.8645C30.3747 23.6073 30.6301 22.9335 30.3731 22.3626L20.6047 0.673693Z" fill="#3549A5"/>
<path d="M17.6872 21.6396H1.18927C0.533592 21.6396 0 22.1732 0 22.829C0 23.4847 0.533592 24.0183 1.18927 24.0183H17.6872C18.3429 24.0183 18.8763 23.4847 18.8763 22.829C18.8763 22.1732 18.3429 21.6396 17.6872 21.6396Z" fill="#A0D3F2"/>
<path d="M123.631 20.8977C122.772 20.8977 122.073 21.5967 122.073 22.456C122.073 23.3152 122.772 24.0142 123.631 24.0142C124.49 24.0142 125.19 23.3152 125.19 22.456C125.19 21.5967 124.49 20.8977 123.631 20.8977Z" fill="#A0D3F2"/>
</svg>
