<svg width="64" height="65" viewBox="0 0 64 65" fill="none" xmlns="http://www.w3.org/2000/svg">
<rect y="0.600098" width="64" height="64" rx="16" fill="url(#paint0_linear_525_12627)"/>
<line opacity="0.5" x1="6.4" y1="7.64" x2="57.6" y2="7.64" stroke="#C7D6E7" stroke-width="0.32" stroke-dasharray="0.8 0.8"/>
<line opacity="0.5" x1="6.4" y1="15.64" x2="57.6" y2="15.64" stroke="#C7D6E7" stroke-width="0.32" stroke-dasharray="0.8 0.8"/>
<line opacity="0.5" x1="6.4" y1="23.64" x2="57.6" y2="23.64" stroke="#C7D6E7" stroke-width="0.32" stroke-dasharray="0.8 0.8"/>
<line opacity="0.5" x1="6.4" y1="31.64" x2="57.6" y2="31.64" stroke="#C7D6E7" stroke-width="0.32" stroke-dasharray="0.8 0.8"/>
<line opacity="0.5" x1="6.4" y1="39.64" x2="57.6" y2="39.64" stroke="#C7D6E7" stroke-width="0.32" stroke-dasharray="0.8 0.8"/>
<line opacity="0.5" x1="6.4" y1="47.64" x2="57.6" y2="47.64" stroke="#C7D6E7" stroke-width="0.32" stroke-dasharray="0.8 0.8"/>
<line opacity="0.5" x1="6.4" y1="55.64" x2="57.6" y2="55.64" stroke="#C7D6E7" stroke-width="0.32" stroke-dasharray="0.8 0.8"/>
<path d="M17.92 33.5214C11.76 33.5214 8.68 39.037 5.6 41.3594V56.6H58.4V22.2C54.3434 22.2 42.12 39.6176 33.32 39.6176C24.52 39.6176 24.08 33.5214 17.92 33.5214Z" fill="url(#paint1_linear_525_12627)" fill-opacity="0.1"/>
<path d="M5.6 41.4C8.68 39.0727 11.76 33.5454 17.92 33.5454C24.08 33.5454 24.52 39.6545 33.32 39.6545C42.12 39.6545 54.3434 22.2 58.4 22.2" stroke="url(#paint2_linear_525_12627)" stroke-width="0.866116" stroke-linecap="round" stroke-linejoin="round"/>
<path d="M46.5761 15.9844L42.7458 15.5059C42.4964 14.5757 42.1263 13.6821 41.645 12.848L44.016 9.79958C44.0883 9.70644 44.1242 9.59009 44.1168 9.47239C44.1094 9.35468 44.0592 9.24373 43.9758 9.16039L41.2376 6.42506C41.1542 6.34169 41.0432 6.29165 40.9255 6.28435C40.8078 6.27704 40.6915 6.31297 40.5984 6.38539L37.55 8.75635C36.7165 8.27614 35.8237 7.90688 34.8945 7.65797L34.4155 3.82522C34.4012 3.70796 34.3445 3.59997 34.2561 3.52162C34.1676 3.44327 34.0536 3.39998 33.9355 3.3999H30.0645C29.9466 3.39994 29.8328 3.44303 29.7444 3.52108C29.656 3.59913 29.5991 3.70677 29.5845 3.82377L29.1055 7.65797C28.1754 7.90694 27.2822 8.27704 26.4485 8.75877L23.4002 6.38781C23.3071 6.31539 23.1908 6.27946 23.0731 6.28677C22.9554 6.29407 22.8444 6.34411 22.761 6.42748L20.0252 9.16232C19.9417 9.24567 19.8916 9.35662 19.8842 9.47432C19.8768 9.59203 19.9126 9.70838 19.985 9.80151L22.356 12.8499C21.876 13.6837 21.5069 14.5765 21.2581 15.5059L17.4253 15.9844C17.3081 15.9987 17.2001 16.0554 17.1217 16.1438C17.0434 16.2323 17.0001 16.3463 17 16.4644V20.3354C17 20.4533 17.0431 20.5671 17.1212 20.6555C17.1992 20.7439 17.3069 20.8008 17.4239 20.8154L21.2566 21.2939C21.5059 22.2241 21.8758 23.1177 22.3569 23.9518L19.986 27.0002C19.9136 27.0933 19.8776 27.2096 19.8849 27.3273C19.8922 27.445 19.9423 27.556 20.0256 27.6394L22.7629 30.3767C22.8463 30.46 22.9573 30.5101 23.075 30.5174C23.1927 30.5247 23.309 30.4888 23.4021 30.4164L26.4505 28.0454C27.2844 28.5263 28.1776 28.8962 29.1074 29.1457L29.5865 32.9765C29.6011 33.0931 29.6578 33.2004 29.7457 33.2783C29.8337 33.3562 29.947 33.3994 30.0645 33.3999H33.9355C34.0534 33.3999 34.1672 33.3568 34.2556 33.2787C34.344 33.2007 34.4009 33.093 34.4155 32.976L34.894 29.1457C35.8243 28.8966 36.7179 28.5265 37.5519 28.0449L40.6003 30.4159C40.6934 30.4883 40.8097 30.5242 40.9274 30.5169C41.0451 30.5096 41.1561 30.4596 41.2395 30.3762L43.9768 27.6389C44.0602 27.5556 44.1103 27.4446 44.1177 27.3269C44.1251 27.2092 44.0893 27.0929 44.0169 26.9997L41.646 23.9514C42.127 23.1171 42.4969 22.2236 42.7463 21.2934L46.5771 20.8149C46.6938 20.8001 46.8012 20.7432 46.879 20.6549C46.9569 20.5667 46.9999 20.4531 47 20.3354V16.4644C47 16.3465 46.9569 16.2327 46.8788 16.1443C46.8008 16.0559 46.6931 15.999 46.5761 15.9844ZM32 23.7225C30.9473 23.7225 29.9182 23.4103 29.0429 22.8255C28.1676 22.2406 27.4854 21.4093 27.0826 20.4368C26.6797 19.4642 26.5743 18.394 26.7797 17.3615C26.9851 16.329 27.492 15.3806 28.2364 14.6363C28.9807 13.8919 29.9291 13.385 30.9616 13.1796C31.9941 12.9742 33.0643 13.0796 34.0369 13.4825C35.0094 13.8853 35.8407 14.5675 36.4256 15.4428C37.0104 16.3181 37.3226 17.3472 37.3226 18.3999C37.3226 19.8115 36.7618 21.1654 35.7636 22.1635C34.7655 23.1617 33.4116 23.7225 32 23.7225Z" fill="url(#paint3_linear_525_12627)"/>
<path opacity="0.09" fill-rule="evenodd" clip-rule="evenodd" d="M56.7008 30.8611C55.9833 30.8611 55.4016 31.4428 55.4016 32.1603V55.5454C55.4016 56.2629 55.9833 56.8446 56.7008 56.8446C57.4183 56.8446 58 56.2629 58 55.5454V32.1603C58 31.4428 57.4183 30.8611 56.7008 30.8611ZM49.3388 38.1565C49.3388 37.439 49.9205 36.8573 50.638 36.8573C51.3555 36.8573 51.9372 37.439 51.9372 38.1565V55.5454C51.9372 56.263 51.3555 56.8446 50.638 56.8446C49.9205 56.8446 49.3388 56.263 49.3388 55.5454V38.1565ZM20.324 40.8547C19.6064 40.8547 19.0248 41.4363 19.0248 42.1538V55.5453C19.0248 56.2628 19.6064 56.8445 20.324 56.8445C21.0415 56.8445 21.6231 56.2628 21.6231 55.5453V42.1538C21.6231 41.4363 21.0415 40.8547 20.324 40.8547ZM12.962 45.4853C12.962 44.7678 13.5436 44.1861 14.2612 44.1861C14.9787 44.1861 15.5603 44.7678 15.5603 45.4853V55.5456C15.5603 56.2631 14.9787 56.8447 14.2612 56.8447C13.5436 56.8447 12.962 56.2631 12.962 55.5456V45.4853ZM6.89917 48.8163C6.89917 48.0988 7.48083 47.5172 8.19834 47.5172C8.91586 47.5172 9.49752 48.0988 9.49752 48.8163V55.5454C9.49752 56.2629 8.91586 56.8446 8.19834 56.8446C7.48083 56.8446 6.89917 56.2629 6.89917 55.5454V48.8163ZM25.0876 47.4837C25.0876 46.7662 25.6693 46.1846 26.3868 46.1846C27.1043 46.1846 27.6859 46.7662 27.6859 47.4837V55.5453C27.6859 56.2628 27.1043 56.8445 26.3868 56.8445C25.6693 56.8445 25.0876 56.2628 25.0876 55.5453V47.4837ZM32.4496 42.8535C31.7321 42.8535 31.1504 43.4352 31.1504 44.1527V55.5455C31.1504 56.263 31.7321 56.8446 32.4496 56.8446C33.1671 56.8446 33.7488 56.263 33.7488 55.5455V44.1527C33.7488 43.4352 33.1671 42.8535 32.4496 42.8535ZM37.2132 52.1476C37.2132 51.4301 37.7949 50.8484 38.5124 50.8484C39.2299 50.8484 39.8116 51.4301 39.8116 52.1476V55.5454C39.8116 56.2629 39.2299 56.8446 38.5124 56.8446C37.7949 56.8446 37.2132 56.2629 37.2132 55.5454V52.1476ZM44.5752 44.1861C43.8577 44.1861 43.276 44.7678 43.276 45.4853V55.5456C43.276 56.2631 43.8577 56.8447 44.5752 56.8447C45.2927 56.8447 45.8744 56.2631 45.8744 55.5456V45.4853C45.8744 44.7678 45.2927 44.1861 44.5752 44.1861Z" fill="url(#paint4_linear_525_12627)"/>
<path d="M32.9287 20.4791C33.064 20.3841 33.2437 20.2079 33.2437 19.771C33.2437 19.4606 33.0331 19.2746 32.5834 19.0821V20.6331C32.7146 20.5929 32.8354 20.5451 32.9287 20.4791Z" fill="#39B8F2"/>
<path d="M32 11.4002C28.1401 11.4002 25.0001 14.5402 25.0001 18.4001C25.0001 22.26 28.1401 25.4001 32 25.4001C35.8599 25.4001 39 22.26 39 18.4001C39 14.5402 35.8599 11.4002 32 11.4002ZM34.4104 19.7716C34.4104 20.6751 33.9694 21.1745 33.5989 21.4346C33.309 21.6382 32.9596 21.7595 32.5834 21.8295V23.0668H31.4167V21.8785C30.7453 21.8278 30.0605 21.668 29.4684 21.4545L28.92 21.2567L29.3161 20.1595L29.865 20.3578C30.4017 20.5515 30.9349 20.667 31.4167 20.7113V18.6644C30.4898 18.3319 29.4614 17.8127 29.4614 16.4932C29.4614 15.8352 29.7665 15.2922 30.3212 14.9643C30.6374 14.7777 31.0177 14.6767 31.4167 14.6295V13.7335H32.5834V14.6382C33.2699 14.7182 33.8988 14.9066 34.2494 15.1002L34.7609 15.3808L34.1992 16.4034L33.6882 16.1222C33.4356 15.9834 33.0232 15.8702 32.5834 15.809V17.8296C33.4747 18.1446 34.4104 18.6008 34.4104 19.7716Z" fill="url(#paint5_linear_525_12627)"/>
<path d="M30.9156 15.9695C30.7143 16.0885 30.628 16.2449 30.628 16.4934C30.628 16.9349 30.8783 17.1759 31.4167 17.4098V15.8079C31.2253 15.8412 31.0492 15.8902 30.9156 15.9695Z" fill="#39B8F2"/>
<defs>
<linearGradient id="paint0_linear_525_12627" x1="52.8842" y1="5.32141" x2="-14.9642" y2="35.5235" gradientUnits="userSpaceOnUse">
<stop stop-color="#F2F5FB"/>
<stop offset="1" stop-color="#DAE0ED"/>
</linearGradient>
<linearGradient id="paint1_linear_525_12627" x1="32" y1="22.2" x2="32" y2="56.6" gradientUnits="userSpaceOnUse">
<stop stop-color="#38BBF9"/>
<stop offset="1" stop-color="#38BBF9" stop-opacity="0"/>
</linearGradient>
<linearGradient id="paint2_linear_525_12627" x1="12.8" y1="37.8" x2="60" y2="25" gradientUnits="userSpaceOnUse">
<stop stop-color="#12B0FA"/>
<stop offset="1" stop-color="#83D8FF"/>
</linearGradient>
<linearGradient id="paint3_linear_525_12627" x1="20" y1="13.3999" x2="39.5" y2="27.3999" gradientUnits="userSpaceOnUse">
<stop stop-color="#2F50A2"/>
<stop offset="1" stop-color="#2F50A2" stop-opacity="0.77"/>
</linearGradient>
<linearGradient id="paint4_linear_525_12627" x1="10.7696" y1="57.8014" x2="51.9372" y2="57.8014" gradientUnits="userSpaceOnUse">
<stop stop-color="#0D1E47"/>
<stop offset="1" stop-color="#657292"/>
</linearGradient>
<linearGradient id="paint5_linear_525_12627" x1="35.7239" y1="11.4611" x2="29.1483" y2="26.585" gradientUnits="userSpaceOnUse">
<stop stop-color="#12B0FA"/>
<stop offset="1" stop-color="#76D3FF"/>
</linearGradient>
</defs>
</svg>
