<svg width="80" height="93" viewBox="0 0 80 93" fill="none" xmlns="http://www.w3.org/2000/svg">
<g filter="url(#filter0_d_525_10504)">
<path d="M40 0L6.89655 14.5455V36.3636C6.89655 56.5455 21.0207 75.4182 40 80C58.9793 75.4182 73.1034 56.5455 73.1034 36.3636V14.5455L40 0Z" fill="url(#paint0_linear_525_10504)"/>
</g>
<path opacity="0.85" d="M40 5.51724L11.0345 18.0564V36.8652C11.0345 54.2633 23.3931 70.5329 40 74.4828C56.6069 70.5329 68.9655 54.2633 68.9655 36.8652V18.0564L40 5.51724Z" fill="url(#paint1_linear_525_10504)"/>
<path opacity="0.11" fill-rule="evenodd" clip-rule="evenodd" d="M43.8288 13.3346C44.2025 13.9383 44.3992 14.6349 44.3965 15.3449C44.3934 16.1834 44.1125 16.9972 43.5978 17.6591C43.0831 18.321 42.3635 18.7937 41.5517 19.0033V52.3276C41.5517 52.5791 41.4518 52.8203 41.2739 52.9982C41.0961 53.176 40.8549 53.2759 40.6034 53.2759C40.3519 53.2759 40.1107 53.176 39.9329 52.9982C39.755 52.8203 39.6551 52.5791 39.6551 52.3276V19.0033C38.9676 18.8258 38.3438 18.4589 37.8545 17.9443C37.3653 17.4298 37.0303 16.7882 36.8876 16.0926C36.745 15.397 36.8005 14.6754 37.0477 14.0098C37.295 13.3442 37.7241 12.7614 38.2863 12.3276C38.8484 11.8939 39.521 11.6266 40.2276 11.5563C40.9341 11.4859 41.6462 11.6153 42.2829 11.9296C42.9195 12.244 43.4552 12.7308 43.8288 13.3346ZM29.2241 27.2799L35.5842 33.64C35.7621 33.8178 35.862 34.0589 35.8621 34.3104V52.3277C35.8621 52.5792 35.7622 52.8204 35.5843 52.9982C35.4065 53.176 35.1653 53.2759 34.9138 53.2759C34.6623 53.2759 34.4211 53.176 34.2432 52.9982C34.0654 52.8204 33.9655 52.5792 33.9655 52.3277V34.703L27.6054 28.3429C27.4276 28.1651 27.3276 27.924 27.3276 27.6725V23.7447C26.4337 23.5139 25.6546 22.965 25.1365 22.2009C24.6183 21.4368 24.3967 20.51 24.513 19.5941C24.6293 18.6783 25.0757 17.8363 25.7684 17.226C26.4611 16.6157 27.3526 16.279 28.2759 16.279C29.1991 16.279 30.0906 16.6157 30.7833 17.226C31.476 17.8363 31.9224 18.6783 32.0387 19.5941C32.1551 20.51 31.9334 21.4368 31.4152 22.2009C30.8971 22.965 30.118 23.5139 29.2241 23.7447V27.2799ZM29.8946 47.8641L25.431 43.4006V39.8654C26.3249 39.6346 27.104 39.0857 27.6221 38.3216C28.1403 37.5575 28.3619 36.6307 28.2456 35.7148C28.1293 34.799 27.6829 33.957 26.9902 33.3467C26.2975 32.7364 25.406 32.3997 24.4827 32.3997C23.5595 32.3997 22.668 32.7364 21.9753 33.3467C21.2826 33.957 20.8362 34.799 20.7199 35.7148C20.6035 36.6307 20.8252 37.5575 21.3434 38.3216C21.8615 39.0857 22.6406 39.6346 23.5345 39.8654V43.7932C23.5345 44.0447 23.6345 44.2858 23.8123 44.4636L28.2759 48.9271V52.3277C28.2759 52.5792 28.3758 52.8204 28.5536 52.9982C28.7314 53.176 28.9726 53.2759 29.2241 53.2759C29.4756 53.2759 29.7168 53.176 29.8947 52.9982C30.0725 52.8204 30.1724 52.5792 30.1724 52.3277V48.5345C30.1724 48.2831 30.0724 48.0419 29.8946 47.8641ZM60.5172 36.207C60.5199 35.4969 60.3232 34.8004 59.9495 34.1966C59.5759 33.5929 59.0402 33.1061 58.4036 32.7917C57.7669 32.4773 57.0548 32.348 56.3483 32.4183C55.6417 32.4887 54.9691 32.7559 54.407 33.1897C53.8448 33.6235 53.4157 34.2063 53.1685 34.8719C52.9212 35.5375 52.8657 36.2591 53.0084 36.9547C53.151 37.6503 53.486 38.2918 53.9752 38.8064C54.4645 39.321 55.0884 39.6879 55.7758 39.8654V43.4006L51.3123 47.8641C51.1345 48.0419 51.0345 48.2831 51.0345 48.5345V52.3276C51.0345 52.5791 51.1344 52.8203 51.3122 52.9982C51.49 53.176 51.7312 53.2759 51.9827 53.2759C52.2342 53.2759 52.4754 53.176 52.6533 52.9982C52.8311 52.8203 52.931 52.5791 52.931 52.3276V48.9271L57.3946 44.4636C57.5724 44.2858 57.6723 44.0446 57.6724 43.7932V39.8654C58.4843 39.6558 59.2038 39.1831 59.7185 38.5212C60.2332 37.8592 60.5141 37.0454 60.5172 36.207ZM56.7241 20.0863C56.7268 19.3762 56.5301 18.6797 56.1564 18.0759C55.7828 17.4722 55.2471 16.9854 54.6105 16.671C53.9738 16.3566 53.2617 16.2273 52.5552 16.2976C51.8486 16.368 51.176 16.6352 50.6139 17.069C50.0517 17.5028 49.6226 18.0856 49.3754 18.7512C49.1281 19.4168 49.0726 20.1384 49.2153 20.834C49.3579 21.5296 49.6929 22.1711 50.1821 22.6857C50.6714 23.2003 51.2952 23.5672 51.9827 23.7447V27.2799L45.6227 33.64C45.4448 33.8178 45.3449 34.0589 45.3448 34.3104V52.3276C45.3448 52.5791 45.4447 52.8203 45.6226 52.9982C45.8004 53.176 46.0416 53.2759 46.2931 53.2759C46.5446 53.2759 46.7858 53.176 46.9636 52.9982C47.1415 52.8203 47.2414 52.5791 47.2414 52.3276V34.703L53.6014 28.3429C53.7793 28.1651 53.8792 27.924 53.8793 27.6725V23.7447C54.6912 23.5351 55.4107 23.0624 55.9254 22.4005C56.4401 21.7386 56.721 20.9247 56.7241 20.0863Z" fill="url(#paint2_linear_525_10504)"/>
<g filter="url(#filter1_d_525_10504)">
<path d="M47.3563 36.1686C47.3563 36.5918 47.0132 36.9349 46.59 36.9349C46.1668 36.9349 45.8237 36.5918 45.8237 36.1686V33.1034C45.8237 31.6808 45.2586 30.3165 44.2527 29.3105C43.2467 28.3046 41.8824 27.7395 40.4598 27.7395C39.0371 27.7395 37.6728 28.3046 36.6668 29.3105C35.6609 30.3165 35.0958 31.6808 35.0958 33.1034V36.1686C35.0958 36.5918 34.7527 36.9349 34.3295 36.9349C33.9063 36.9349 33.5632 36.5918 33.5632 36.1686V33.1034C33.5632 31.2744 34.2898 29.5202 35.5832 28.2268C36.8765 26.9335 38.6307 26.2069 40.4598 26.2069C42.2888 26.2069 44.043 26.9335 45.3364 28.2268C46.6297 29.5202 47.3563 31.2744 47.3563 33.1034V36.1686Z" fill="white"/>
</g>
<g filter="url(#filter2_d_525_10504)">
<path d="M49.6552 38.4675H31.2644C30.6547 38.4675 30.07 38.7097 29.6388 39.1408C29.2077 39.5719 28.9655 40.1566 28.9655 40.7663V51.4943C28.9655 52.104 29.2077 52.6887 29.6388 53.1198C30.07 53.5509 30.6547 53.7931 31.2644 53.7931H49.6552C50.2649 53.7931 50.8496 53.5509 51.2807 53.1198C51.7118 52.6887 51.954 52.104 51.954 51.4943V40.7663C51.954 40.1566 51.7118 39.5719 51.2807 39.1408C50.8496 38.7097 50.2649 38.4675 49.6552 38.4675ZM41.2261 47.5548V49.9617C41.2261 50.165 41.1453 50.3599 41.0016 50.5036C40.8579 50.6473 40.663 50.728 40.4598 50.728C40.2565 50.728 40.0616 50.6473 39.9179 50.5036C39.7742 50.3599 39.6935 50.165 39.6935 49.9617V47.5548C38.9711 47.3683 38.3416 46.9248 37.9229 46.3073C37.5042 45.6899 37.3251 44.9409 37.4191 44.2008C37.5131 43.4607 37.8738 42.7803 38.4335 42.2871C38.9933 41.794 39.7137 41.5219 40.4598 41.5219C41.2058 41.5219 41.9262 41.794 42.486 42.2871C43.0458 42.7803 43.4065 43.4607 43.5005 44.2008C43.5945 44.9409 43.4153 45.6899 42.9966 46.3073C42.5779 46.9248 41.9484 47.3683 41.2261 47.5548Z" fill="url(#paint3_linear_525_10504)"/>
</g>
<defs>
<filter id="filter0_d_525_10504" x="0.896545" y="0" width="78.2069" height="93" filterUnits="userSpaceOnUse" color-interpolation-filters="sRGB">
<feFlood flood-opacity="0" result="BackgroundImageFix"/>
<feColorMatrix in="SourceAlpha" type="matrix" values="0 0 0 0 0 0 0 0 0 0 0 0 0 0 0 0 0 0 127 0" result="hardAlpha"/>
<feOffset dy="7"/>
<feGaussianBlur stdDeviation="3"/>
<feComposite in2="hardAlpha" operator="out"/>
<feColorMatrix type="matrix" values="0 0 0 0 0.230417 0 0 0 0 0.390075 0 0 0 0 0.7 0 0 0 0.04 0"/>
<feBlend mode="normal" in2="BackgroundImageFix" result="effect1_dropShadow_525_10504"/>
<feBlend mode="normal" in="SourceGraphic" in2="effect1_dropShadow_525_10504" result="shape"/>
</filter>
<filter id="filter1_d_525_10504" x="25.5632" y="26.2069" width="29.7931" height="26.728" filterUnits="userSpaceOnUse" color-interpolation-filters="sRGB">
<feFlood flood-opacity="0" result="BackgroundImageFix"/>
<feColorMatrix in="SourceAlpha" type="matrix" values="0 0 0 0 0 0 0 0 0 0 0 0 0 0 0 0 0 0 127 0" result="hardAlpha"/>
<feOffset dy="8"/>
<feGaussianBlur stdDeviation="4"/>
<feComposite in2="hardAlpha" operator="out"/>
<feColorMatrix type="matrix" values="0 0 0 0 0 0 0 0 0 0 0 0 0 0 0 0 0 0 0.09 0"/>
<feBlend mode="normal" in2="BackgroundImageFix" result="effect1_dropShadow_525_10504"/>
<feBlend mode="normal" in="SourceGraphic" in2="effect1_dropShadow_525_10504" result="shape"/>
</filter>
<filter id="filter2_d_525_10504" x="20.9655" y="38.4675" width="38.9885" height="31.3257" filterUnits="userSpaceOnUse" color-interpolation-filters="sRGB">
<feFlood flood-opacity="0" result="BackgroundImageFix"/>
<feColorMatrix in="SourceAlpha" type="matrix" values="0 0 0 0 0 0 0 0 0 0 0 0 0 0 0 0 0 0 127 0" result="hardAlpha"/>
<feOffset dy="8"/>
<feGaussianBlur stdDeviation="4"/>
<feComposite in2="hardAlpha" operator="out"/>
<feColorMatrix type="matrix" values="0 0 0 0 0 0 0 0 0 0 0 0 0 0 0 0 0 0 0.09 0"/>
<feBlend mode="normal" in2="BackgroundImageFix" result="effect1_dropShadow_525_10504"/>
<feBlend mode="normal" in="SourceGraphic" in2="effect1_dropShadow_525_10504" result="shape"/>
</filter>
<linearGradient id="paint0_linear_525_10504" x1="61.6044" y1="5.90164" x2="-12.4424" y2="33.1799" gradientUnits="userSpaceOnUse">
<stop stop-color="#F2F5FB"/>
<stop offset="1" stop-color="#DAE0ED"/>
</linearGradient>
<linearGradient id="paint1_linear_525_10504" x1="16.0129" y1="77.7841" x2="68.9655" y2="77.7841" gradientUnits="userSpaceOnUse">
<stop stop-color="#0D1E47"/>
<stop offset="1" stop-color="#657292"/>
</linearGradient>
<linearGradient id="paint2_linear_525_10504" x1="46.207" y1="17.931" x2="42.7586" y2="52.4138" gradientUnits="userSpaceOnUse">
<stop stop-color="white"/>
<stop offset="1" stop-color="white" stop-opacity="0.45"/>
</linearGradient>
<linearGradient id="paint3_linear_525_10504" x1="46.5745" y1="38.5342" x2="41.3108" y2="56.6942" gradientUnits="userSpaceOnUse">
<stop stop-color="#12B0FA"/>
<stop offset="1" stop-color="#6FC7F4"/>
</linearGradient>
</defs>
</svg>
