<svg width="68" height="62" viewBox="0 0 68 62" fill="none" xmlns="http://www.w3.org/2000/svg">
<path opacity="0.3" d="M32.8484 17.4068C33.5448 16.9387 34.4552 16.9387 35.1516 17.4068L65.0266 37.4848C66.2438 38.3028 66.2438 40.0937 65.0266 40.9118L35.1516 60.9898C34.4552 61.4578 33.5448 61.4578 32.8484 60.9898L2.97346 40.9118C1.75622 40.0937 1.75622 38.3028 2.97346 37.4848L32.8484 17.4068Z" fill="url(#paint0_linear_525_10527)"/>
<path opacity="0.9" d="M32.8484 9.14864C33.5448 8.68061 34.4552 8.68061 35.1516 9.14864L65.0266 29.2267C66.2438 30.0447 66.2438 31.8356 65.0266 32.6537L35.1516 52.7317C34.4552 53.1997 33.5448 53.1997 32.8484 52.7317L2.97346 32.6537C1.75622 31.8356 1.75622 30.0447 2.97346 29.2266L32.8484 9.14864Z" fill="url(#paint1_linear_525_10527)" fill-opacity="0.8"/>
<g filter="url(#filter0_b_525_10527)">
<path d="M32.8484 0.89052C33.5448 0.422496 34.4552 0.422497 35.1516 0.890521L65.0266 20.9685C66.2438 21.7866 66.2438 23.5775 65.0266 24.3955L35.1516 44.4736C34.4552 44.9416 33.5448 44.9416 32.8484 44.4736L2.97346 24.3955C1.75622 23.5775 1.75622 21.7866 2.97346 20.9685L32.8484 0.89052Z" fill="url(#paint2_linear_525_10527)"/>
<path d="M32.9252 1.00475C33.5752 0.567931 34.4249 0.567932 35.0748 1.00475L64.9498 21.0828C66.0859 21.8463 66.0859 23.5178 64.9498 24.2813L35.0748 44.3593C34.4249 44.7961 33.5752 44.7961 32.9252 44.3593L3.05023 24.2813C1.91414 23.5178 1.91414 21.8463 3.05023 21.0828L32.9252 1.00475Z" stroke="url(#paint3_linear_525_10527)" stroke-width="0.275269"/>
</g>
<g clip-path="url(#clip0_525_10527)">
<path d="M34.0011 26.9401C34.3271 26.9401 34.6331 26.7811 34.8201 26.5131L41.8201 16.513C42.0341 16.208 42.0581 15.809 41.8881 15.478C41.7151 15.147 41.3741 14.94 41.0011 14.94H26.9991C26.6261 14.94 26.2851 15.147 26.1121 15.478C25.9421 15.809 25.9661 16.208 26.1801 16.513L33.1801 26.5131C33.3671 26.7811 33.6731 26.9401 33.9991 26.9401H34.0011Z" fill="url(#paint4_linear_525_10527)"/>
<path d="M26 29.9401C26 29.3881 26.447 28.9401 27 28.9401H41C41.553 28.9401 42 29.3881 42 29.9401C42 30.4921 41.553 30.9401 41 30.9401H27C26.447 30.9401 26 30.4921 26 29.9401Z" fill="url(#paint5_linear_525_10527)"/>
</g>
<defs>
<filter id="filter0_b_525_10527" x="-0.00397086" y="-1.52503" width="68.008" height="48.4141" filterUnits="userSpaceOnUse" color-interpolation-filters="sRGB">
<feFlood flood-opacity="0" result="BackgroundImageFix"/>
<feGaussianBlur in="BackgroundImageFix" stdDeviation="1.03226"/>
<feComposite in2="SourceAlpha" operator="in" result="effect1_backgroundBlur_525_10527"/>
<feBlend mode="normal" in="SourceGraphic" in2="effect1_backgroundBlur_525_10527" result="shape"/>
</filter>
<linearGradient id="paint0_linear_525_10527" x1="30.9033" y1="44.7036" x2="-14.8602" y2="43.6713" gradientUnits="userSpaceOnUse">
<stop stop-color="#96A7CF"/>
<stop offset="1" stop-color="#96A7CF" stop-opacity="0"/>
</linearGradient>
<linearGradient id="paint1_linear_525_10527" x1="50.7881" y1="14.152" x2="17.2119" y2="47.7282" gradientUnits="userSpaceOnUse">
<stop stop-color="#2F50A2"/>
<stop offset="1" stop-color="#3D5797"/>
</linearGradient>
<linearGradient id="paint2_linear_525_10527" x1="38.4731" y1="4.78951" x2="20.2365" y2="49.8648" gradientUnits="userSpaceOnUse">
<stop stop-color="#12B0FA" stop-opacity="0.97"/>
<stop offset="1" stop-color="#21BAEB" stop-opacity="0.68"/>
</linearGradient>
<linearGradient id="paint3_linear_525_10527" x1="33.6559" y1="1.00456" x2="17.2119" y2="39.4701" gradientUnits="userSpaceOnUse">
<stop stop-color="#21ACED"/>
<stop offset="1" stop-color="#5AB6EA" stop-opacity="0.1"/>
</linearGradient>
<linearGradient id="paint4_linear_525_10527" x1="26" y1="23.94" x2="64.5001" y2="1.94007" gradientUnits="userSpaceOnUse">
<stop stop-color="white"/>
<stop offset="1" stop-color="white" stop-opacity="0"/>
</linearGradient>
<linearGradient id="paint5_linear_525_10527" x1="25" y1="32.4401" x2="52" y2="27.4401" gradientUnits="userSpaceOnUse">
<stop stop-color="white"/>
<stop offset="1" stop-color="white" stop-opacity="0"/>
</linearGradient>
<clipPath id="clip0_525_10527">
<rect width="16" height="16" fill="white" transform="translate(26 14.94)"/>
</clipPath>
</defs>
</svg>
