<svg width="66" height="47" viewBox="0 0 66 47" fill="none" xmlns="http://www.w3.org/2000/svg">
<path d="M1.00001 5.59146H65V43.9914C65 45.4797 63.7935 46.6862 62.3053 46.6862H3.69475C2.20648 46.6862 1.00001 45.4797 1.00001 43.9914V5.59146Z" fill="url(#paint0_linear_525_10555)"/>
<path d="M33.3368 18.8513C27.4595 18.8513 22.6915 23.6193 22.6915 29.4966C22.6915 35.374 27.4595 40.142 33.3368 40.142C39.2142 40.142 43.9822 35.374 43.9822 29.4966C43.9822 23.6193 39.2142 18.8513 33.3368 18.8513ZM32.7822 38.03V31.3526H29.0702L34.4035 20.9633V27.6406H37.9768L32.7822 38.03Z" fill="url(#paint1_linear_525_10555)"/>
<path d="M1.00001 5.59146H65V2.22304C65 1.10685 64.0952 0.201989 62.979 0.201989H3.02106C1.90487 0.201989 1.00001 1.10684 1.00001 2.22304V5.59146Z" fill="url(#paint2_linear_525_10555)"/>
<ellipse cx="4.36844" cy="2.89665" rx="0.673684" ry="0.673684" fill="white"/>
<ellipse cx="7.06315" cy="2.89665" rx="0.673684" ry="0.673684" fill="white"/>
<ellipse cx="9.75789" cy="2.89665" rx="0.673684" ry="0.673684" fill="white"/>
<g opacity="0.4" filter="url(#filter0_d_525_10555)">
<rect x="4.36842" y="9.6124" width="18.1895" height="6.06316" rx="0.673684" fill="white"/>
</g>
<g opacity="0.4" filter="url(#filter1_d_525_10555)">
<rect x="23.9053" y="9.6124" width="18.1895" height="6.06316" rx="0.673684" fill="white"/>
</g>
<g opacity="0.4" filter="url(#filter2_d_525_10555)">
<rect x="43.4421" y="9.6124" width="18.1895" height="6.06316" rx="0.673684" fill="white"/>
</g>
<defs>
<filter id="filter0_d_525_10555" x="0.368418" y="9.6124" width="26.1895" height="14.0631" filterUnits="userSpaceOnUse" color-interpolation-filters="sRGB">
<feFlood flood-opacity="0" result="BackgroundImageFix"/>
<feColorMatrix in="SourceAlpha" type="matrix" values="0 0 0 0 0 0 0 0 0 0 0 0 0 0 0 0 0 0 127 0" result="hardAlpha"/>
<feOffset dy="4"/>
<feGaussianBlur stdDeviation="2"/>
<feComposite in2="hardAlpha" operator="out"/>
<feColorMatrix type="matrix" values="0 0 0 0 0 0 0 0 0 0 0 0 0 0 0 0 0 0 0.16 0"/>
<feBlend mode="normal" in2="BackgroundImageFix" result="effect1_dropShadow_525_10555"/>
<feBlend mode="normal" in="SourceGraphic" in2="effect1_dropShadow_525_10555" result="shape"/>
</filter>
<filter id="filter1_d_525_10555" x="19.9053" y="9.6124" width="26.1895" height="14.0631" filterUnits="userSpaceOnUse" color-interpolation-filters="sRGB">
<feFlood flood-opacity="0" result="BackgroundImageFix"/>
<feColorMatrix in="SourceAlpha" type="matrix" values="0 0 0 0 0 0 0 0 0 0 0 0 0 0 0 0 0 0 127 0" result="hardAlpha"/>
<feOffset dy="4"/>
<feGaussianBlur stdDeviation="2"/>
<feComposite in2="hardAlpha" operator="out"/>
<feColorMatrix type="matrix" values="0 0 0 0 0 0 0 0 0 0 0 0 0 0 0 0 0 0 0.16 0"/>
<feBlend mode="normal" in2="BackgroundImageFix" result="effect1_dropShadow_525_10555"/>
<feBlend mode="normal" in="SourceGraphic" in2="effect1_dropShadow_525_10555" result="shape"/>
</filter>
<filter id="filter2_d_525_10555" x="39.4421" y="9.6124" width="26.1895" height="14.0631" filterUnits="userSpaceOnUse" color-interpolation-filters="sRGB">
<feFlood flood-opacity="0" result="BackgroundImageFix"/>
<feColorMatrix in="SourceAlpha" type="matrix" values="0 0 0 0 0 0 0 0 0 0 0 0 0 0 0 0 0 0 127 0" result="hardAlpha"/>
<feOffset dy="4"/>
<feGaussianBlur stdDeviation="2"/>
<feComposite in2="hardAlpha" operator="out"/>
<feColorMatrix type="matrix" values="0 0 0 0 0 0 0 0 0 0 0 0 0 0 0 0 0 0 0.16 0"/>
<feBlend mode="normal" in2="BackgroundImageFix" result="effect1_dropShadow_525_10555"/>
<feBlend mode="normal" in="SourceGraphic" in2="effect1_dropShadow_525_10555" result="shape"/>
</filter>
<linearGradient id="paint0_linear_525_10555" x1="53.8842" y1="8.62304" x2="-1.02103" y2="46.6862" gradientUnits="userSpaceOnUse">
<stop stop-color="#F2F5FB"/>
<stop offset="1" stop-color="#DAE0ED"/>
</linearGradient>
<linearGradient id="paint1_linear_525_10555" x1="39" y1="18.944" x2="29" y2="41.944" gradientUnits="userSpaceOnUse">
<stop stop-color="#12B0FA"/>
<stop offset="1" stop-color="#12B0FA" stop-opacity="0.42"/>
</linearGradient>
<linearGradient id="paint2_linear_525_10555" x1="6.50001" y1="-0.0560036" x2="65" y2="-0.0560036" gradientUnits="userSpaceOnUse">
<stop stop-color="#0D1E47"/>
<stop offset="1" stop-color="#657292"/>
</linearGradient>
</defs>
</svg>
